<svg xmlns="http://www.w3.org/2000/svg" width="20" height="20" viewBox="0 0 20 20">
  <g id="Group_2" data-name="Group 2" transform="translate(-949 -531)">
    <rect id="Rectangle_1" data-name="Rectangle 1" width="20" height="20" transform="translate(949 531)" fill="none"/>
    <g id="right-arrow" transform="translate(910.44 549.672) rotate(-90)">
      <g id="Group_1" data-name="Group 1" transform="translate(0 41.346)">
        <path id="Path_1" data-name="Path 1" d="M17.066,47.886,10.8,41.623a.952.952,0,0,0-1.342,0l-.569.569a.942.942,0,0,0-.277.671.961.961,0,0,0,.277.679L12.546,47.2H.937A.926.926,0,0,0,0,48.137v.8a.962.962,0,0,0,.937.975h11.65L8.892,53.6a.94.94,0,0,0,0,1.333l.569.567a.952.952,0,0,0,1.342,0l6.263-6.263a.957.957,0,0,0,0-1.347Z" transform="translate(0 -41.346)" fill="#2196f3"/>
      </g>
    </g>
  </g>
</svg>
