<svg xmlns="http://www.w3.org/2000/svg" width="32" height="32" viewBox="0 0 32 32"><defs><style>.a{fill:#dadce0;}.b{fill:#fff;}</style></defs><g transform="translate(-793 -405)"><rect class="a" width="32" height="32" rx="5" transform="translate(793 405)"/><path class="b" d="M.2,5.963A1.7,1.7,0,0,1,.309,4.174,3.289,3.289,0,0,1,1.472,3.128L6.7.405a3.608,3.608,0,0,1,3.329,0l5.23,2.724a3.289,3.289,0,0,1,1.163,1.046,1.7,1.7,0,0,1,.107,1.789,1.892,1.892,0,0,1-1.685,1.008H1.888A1.892,1.892,0,0,1,.2,5.963Zm15.835,9.378a1.4,1.4,0,0,0-1.395-1.395V8.367H13.249v5.579H11.157V8.367H9.762v5.579H6.973V8.367H5.578v5.579H3.486V8.367H2.091v5.579A1.4,1.4,0,0,0,.7,15.341a.7.7,0,1,0,0,1.395H16.038a.7.7,0,1,0,0-1.395Z" transform="translate(800.773 412.773)"/></g></svg>