<svg xmlns="http://www.w3.org/2000/svg" width="24" height="24" viewBox="0 0 24 24"><defs><style>.a{fill:none;}.b{fill:#bdc1c6;}</style></defs><g transform="translate(-856 -267)"><rect class="a" width="24" height="24" transform="translate(856 267)"/><path class="b" d="M7.073,19.8a2.3,2.3,0,0,1-1.63-.675L.516,14.2a1.358,1.358,0,0,1,0-1.92h0a1.358,1.358,0,0,1,1.92,0l4.636,4.636L19.338,4.649a1.358,1.358,0,0,1,1.92,0h0a1.358,1.358,0,0,1,0,1.92L8.7,19.124a2.3,2.3,0,0,1-1.63.675Z" transform="translate(857.113 266.974)"/></g></svg>