<svg xmlns="http://www.w3.org/2000/svg" width="24" height="24" viewBox="0 0 24 24"><defs><style>.a{fill:none;}.b{fill:#0e1013;}</style></defs><g transform="translate(-392 -114)"><rect class="a" width="24" height="24" transform="translate(392 114)"/><g transform="translate(394.424 116.424)"><g transform="translate(-1 -1)"><path class="b" d="M9.576-1A10.576,10.576,0,1,0,20.152,9.576,10.576,10.576,0,0,0,9.576-1Zm0,19.39A8.813,8.813,0,1,1,18.39,9.576,8.814,8.814,0,0,1,9.576,18.39Z" transform="translate(1 1)"/><path class="b" d="M152.741,84.333a.881.881,0,0,0-.881.881V90.5h-2.644a.881.881,0,0,0,0,1.763h3.525a.881.881,0,0,0,.881-.881V85.214A.881.881,0,0,0,152.741,84.333Z" transform="translate(-142.165 -80.808)"/></g></g></g></svg>