<svg xmlns="http://www.w3.org/2000/svg" width="20" height="20" viewBox="0 0 20 20"><defs><style>.a{fill:none;}.b{fill:#9aa0a6;}</style></defs><g transform="translate(-1155.068 -33.068)"><rect class="a" width="20" height="20" transform="translate(1155.068 33.068)"/><g transform="translate(1156.375 34.375)"><path class="b" d="M0,16.52a3.627,3.627,0,0,0,3.622,3.622H13.764a3.627,3.627,0,0,0,3.622-3.622V10H0Zm12.316-3.26a1.087,1.087,0,1,1-1.087,1.087A1.087,1.087,0,0,1,12.316,13.26Zm-3.622,0a1.087,1.087,0,1,1-1.087,1.087A1.087,1.087,0,0,1,8.693,13.26Zm-3.622,0a1.087,1.087,0,1,1-1.087,1.087A1.087,1.087,0,0,1,5.071,13.26Z" transform="translate(0 -2.756)"/><path class="b" d="M13.764,1.449H13.04V.724a.724.724,0,1,0-1.449,0v.724H5.8V.724a.724.724,0,0,0-1.449,0v.724H3.622A3.627,3.627,0,0,0,0,5.071V5.8H17.387V5.071A3.627,3.627,0,0,0,13.764,1.449Z"/></g></g></svg>