<svg xmlns="http://www.w3.org/2000/svg" width="24" height="24" viewBox="0 0 24 24"><defs><style>.a{fill:none;}.b{fill:#80868b;}</style></defs><g transform="translate(-392 -114)"><rect class="a" width="24" height="24" transform="translate(392 114)"/><g transform="translate(395.19 115.428)"><path class="b" d="M3.964,21.143h9.691a1.764,1.764,0,0,0,1.762-1.762V8.81h1.321a.881.881,0,0,0,.881-.881V5.286a1.764,1.764,0,0,0-1.762-1.762H12.334V1.762A1.764,1.764,0,0,0,10.572,0H7.048A1.764,1.764,0,0,0,5.286,1.762V3.524H1.762A1.764,1.764,0,0,0,0,5.286V7.929a.881.881,0,0,0,.881.881H2.2V19.382A1.764,1.764,0,0,0,3.964,21.143Zm9.691-1.762H3.964V8.81h9.691ZM7.048,1.762h3.524V3.524H7.048ZM1.761,5.286h14.1V7.048H1.762Zm0,0"/><path class="b" d="M184.881,199.048a.881.881,0,0,0,.881-.881v-5.286a.881.881,0,1,0-1.762,0v5.286A.881.881,0,0,0,184.881,199.048Zm0,0" transform="translate(-173.869 -181.428)"/><path class="b" d="M104.881,199.048a.881.881,0,0,0,.881-.881v-5.286a.881.881,0,1,0-1.762,0v5.286A.881.881,0,0,0,104.881,199.048Zm0,0" transform="translate(-98.274 -181.428)"/></g></g></svg>