<svg xmlns="http://www.w3.org/2000/svg" width="24" height="24" viewBox="0 0 24 24"><defs><style>.a{fill:none;}.b{fill:#80868b;}</style></defs><g transform="translate(-392 -114)"><rect class="a" width="24" height="24" transform="translate(392 114)"/><g transform="translate(394.13 112)"><g transform="translate(0 5.485)"><g transform="translate(0 0)"><path class="b" d="M15.342,46.51a.958.958,0,0,0-.959.959V50.48a.959.959,0,0,1-.959.959H2.877a.959.959,0,0,1-.959-.959V38.015a.959.959,0,0,1,.959-.959H8.448a.959.959,0,1,0,0-1.918H2.877A2.88,2.88,0,0,0,0,38.015V50.48a2.88,2.88,0,0,0,2.877,2.877H13.425A2.88,2.88,0,0,0,16.3,50.48V47.468A.958.958,0,0,0,15.342,46.51Z" transform="translate(0 -35.138)"/></g></g><g transform="translate(5.523 4.296)"><g transform="translate(0 0)"><path class="b" d="M156.409,5.363a3.691,3.691,0,0,0-5.183-.009l-6.492,6.492a5,5,0,0,0-1.469,3.554v2.148a.958.958,0,0,0,.959.959h2.148a5,5,0,0,0,3.555-1.47l6.483-6.483A3.678,3.678,0,0,0,156.409,5.363ZM148.572,15.68a3.1,3.1,0,0,1-2.2.909h-1.189V15.4a3.1,3.1,0,0,1,.908-2.2l4.28-4.28,2.48,2.48ZM155.053,9.2l-.847.847-2.48-2.48.847-.847a1.753,1.753,0,0,1,2.48,2.48Z" transform="translate(-143.265 -4.296)"/></g></g></g></g></svg>