<svg xmlns="http://www.w3.org/2000/svg" width="24" height="24" viewBox="0 0 24 24"><defs><style>.a{fill:none;}.b{fill:#f02849;}</style></defs><g transform="translate(-392 -114)"><rect class="a" width="24" height="24" transform="translate(392 114)"/><g transform="translate(393.5 114.685)"><g transform="translate(0 0.85)"><g transform="translate(0 0)"><path class="b" d="M10.465,20.035H2.616a.872.872,0,0,1-.872-.872V3.466a.872.872,0,0,1,.872-.872h7.849a.872.872,0,0,0,0-1.744H2.616A2.619,2.619,0,0,0,0,3.466v15.7a2.619,2.619,0,0,0,2.616,2.616h7.849a.872.872,0,1,0,0-1.744Z" transform="translate(0 -0.85)"/></g></g><g transform="translate(6.976 5.21)"><path class="b" d="M183.863,112.648l-5.3-5.232a.872.872,0,1,0-1.224,1.242l3.789,3.739H170.972a.872.872,0,0,0,0,1.744h10.153l-3.789,3.739a.872.872,0,1,0,1.224,1.242l5.3-5.232a.872.872,0,0,0,0-1.242Z" transform="translate(-170.1 -107.165)"/></g></g></g></svg>