<svg xmlns="http://www.w3.org/2000/svg" width="20" height="20" viewBox="0 0 20 20"><defs><style>.a{fill:none;}.b{fill:#9aa0a6;fill-rule:evenodd;}</style></defs><rect class="a" width="20" height="20"/><path class="b" d="M3.03,1.3,7.173,5.446A1.667,1.667,0,0,1,9.523,7.8l4.113,4.112a.833.833,0,1,1-1.178,1.178l-.75-.75a6.64,6.64,0,0,1-3.374.936c-2.988,0-5.626-2.016-7.922-5.917L.236,7.051,0,6.637l.236-.417a18.979,18.979,0,0,1,2.2-3.153l-.583-.583A.834.834,0,1,1,3.03,1.3Zm-.908,5-.2.333.173.286c1.968,3.193,4.051,4.692,6.239,4.692a4.9,4.9,0,0,0,2.146-.5L7.333,7.963A1.672,1.672,0,0,1,7,7.629L3.614,4.245A16.263,16.263,0,0,0,2.122,6.307ZM8.333,0c2.988,0,5.626,2.016,7.922,5.917l.176.3.236.417-.407.711a18.583,18.583,0,0,1-2,2.827L13.083,9A16.916,16.916,0,0,0,14.75,6.639c-2.023-3.389-4.167-4.98-6.417-4.98a4.89,4.89,0,0,0-2.107.485L4.995.917A6.631,6.631,0,0,1,8.333,0Z" transform="translate(1.667 3.333)"/></svg>