<svg xmlns="http://www.w3.org/2000/svg" width="20" height="20" viewBox="0 0 20 20"><defs><style>.a{fill:none;}.b{fill:#0e1013;}</style></defs><g transform="translate(-1369 -28)"><rect class="a" width="20" height="20" transform="translate(1369 28)"/><g transform="translate(1370.651 29.651)"><path class="b" d="M13.218,0H3.479A3.483,3.483,0,0,0,0,3.479v9.74A3.483,3.483,0,0,0,3.479,16.7h9.74A3.483,3.483,0,0,0,16.7,13.218V3.479A3.483,3.483,0,0,0,13.218,0ZM3.479,1.391h9.74a2.087,2.087,0,0,1,2.087,2.087v9.74a2.053,2.053,0,0,1-.209.894L8.722,7.738a3.479,3.479,0,0,0-4.92,0l-2.411,2.41V3.479A2.087,2.087,0,0,1,3.479,1.391Zm0,13.914a2.087,2.087,0,0,1-2.087-2.087v-1.1L4.785,8.721a2.087,2.087,0,0,1,2.953,0L14.112,15.1a2.053,2.053,0,0,1-.894.209Z"/><path class="b" d="M14.935,8.37A2.435,2.435,0,1,0,12.5,5.935,2.435,2.435,0,0,0,14.935,8.37Zm0-3.479a1.044,1.044,0,1,1-1.044,1.044A1.044,1.044,0,0,1,14.935,4.891Z" transform="translate(-3.804 -1.065)"/></g></g></svg>