<svg
  width="32"
  height="32"
  viewBox="0 0 32 32"
  fill="none"
  xmlns="http://www.w3.org/2000/svg"
>
  <path
    d="M26.6673 16V27.3333C26.6673 28.4379 25.7719 29.3333 24.6673 29.3333H7.33399C6.22942 29.3333 5.33398 28.4379 5.33398 27.3333V16"
    stroke="#FF8A7C"
    stroke-width="2"
    stroke-linecap="round"
    stroke-linejoin="round"
  />
  <path
    d="M27.3327 9.33334H4.66602C3.56145 9.33334 2.66602 10.2288 2.66602 11.3333V14C2.66602 15.1046 3.56144 16 4.66601 16H27.3327C28.4373 16 29.3327 15.1046 29.3327 14V11.3333C29.3327 10.2288 28.4373 9.33334 27.3327 9.33334Z"
    stroke="#FF8A7C"
    stroke-width="2"
    stroke-linecap="round"
    stroke-linejoin="round"
  />
  <path
    d="M16 29.3333V9.33334"
    stroke="#FF8A7C"
    stroke-width="2"
    stroke-linecap="round"
    stroke-linejoin="round"
  />
  <path
    d="M15.9993 9.33334H9.99935C9.11529 9.33334 8.26745 8.98215 7.64233 8.35703C7.01721 7.73191 6.66602 6.88406 6.66602 6C6.66602 5.11595 7.01721 4.2681 7.64233 3.64298C8.26745 3.01786 9.11529 2.66667 9.99935 2.66667C14.666 2.66667 15.9993 9.33334 15.9993 9.33334Z"
    stroke="#FF8A7C"
    stroke-width="2"
    stroke-linecap="round"
    stroke-linejoin="round"
  />
  <path
    d="M16 9.33334H22C22.8841 9.33334 23.7319 8.98215 24.357 8.35703C24.9821 7.73191 25.3333 6.88406 25.3333 6C25.3333 5.11595 24.9821 4.2681 24.357 3.64298C23.7319 3.01786 22.8841 2.66667 22 2.66667C17.3333 2.66667 16 9.33334 16 9.33334Z"
    stroke="#FF8A7C"
    stroke-width="2"
    stroke-linecap="round"
    stroke-linejoin="round"
  />
</svg>
