<svg xmlns="http://www.w3.org/2000/svg" width="24" height="24" viewBox="0 0 24 24"><defs><style>.a{fill:none;}.b{fill:#0e1013;}</style></defs><g transform="translate(-1172 -465)"><rect class="a" width="24" height="24" transform="translate(1172 465)"/><path class="b" d="M16.424,0H4.322A4.327,4.327,0,0,0,0,4.322v12.1a4.327,4.327,0,0,0,4.322,4.322h12.1a4.327,4.327,0,0,0,4.322-4.322V4.322A4.327,4.327,0,0,0,16.424,0ZM13.83,9.508H11.237V6.915H13.83Zm1.729-2.593h3.458V9.508H15.559ZM11.237,5.186V1.729H13.83V5.186Zm-1.729,0H6.915V1.729H9.508Zm0,1.729V9.508H6.915V6.915ZM5.186,9.508H1.729V6.915H5.186ZM1.729,11.237H5.186V13.83H1.729Zm5.186,0H9.508V13.83H6.915Zm2.593,4.322v3.458H6.915V15.559Zm1.729,0H13.83v3.458H11.237Zm0-1.729V11.237H13.83V13.83Zm4.322-2.593h3.458V13.83H15.559Zm3.458-6.915v.864H15.559V1.729h.864A2.593,2.593,0,0,1,19.017,4.322ZM4.322,1.729h.864V5.186H1.729V4.322A2.593,2.593,0,0,1,4.322,1.729ZM1.729,16.424v-.864H5.186v3.458H4.322A2.593,2.593,0,0,1,1.729,16.424Zm14.695,2.593h-.864V15.559h3.458v.864A2.593,2.593,0,0,1,16.424,19.017Z" transform="translate(1173.627 466.627)"/></g></svg>