<svg xmlns="http://www.w3.org/2000/svg" width="24" height="24" viewBox="0 0 24 24"><defs><style>.a{fill:none;}.b{fill:#0e1013;}</style></defs><g transform="translate(-392 -114)"><rect class="a" width="24" height="24" transform="translate(392 114)"/><g transform="translate(393.2 95.344)"><g transform="translate(0 20.73)"><path class="b" d="M21.585,27.033c-.006-.075-.013-.133-.019-.173-.3-3.422-2.813-6.131-6.071-6.131a6.012,6.012,0,0,0-4.742,2.341,5.765,5.765,0,0,0-4.64-2.341C2.867,20.73.362,23.42.04,26.88c-.006.04-.012.089-.018.147a6.865,6.865,0,0,0,.2,2.2,9.862,9.862,0,0,0,3,5.017l6.951,6.112a.9.9,0,0,0,1.185,0l7-6.1a10.487,10.487,0,0,0,3.02-5.043A7.67,7.67,0,0,0,21.585,27.033Zm-1.955,1.8a8.739,8.739,0,0,1-2.5,4.126l-6.35,5.529L4.427,32.9a8.054,8.054,0,0,1-2.451-4.088,5.128,5.128,0,0,1-.16-1.651l.013-.091c.231-2.605,2.029-4.545,4.285-4.545a4.12,4.12,0,0,1,3.8,2.669.9.9,0,0,0,1.658,0A4.281,4.281,0,0,1,15.5,22.529c2.256,0,4.054,1.94,4.285,4.546.006.052.008.067.01.1A5.931,5.931,0,0,1,19.63,28.832Z" transform="translate(0 -20.73)"/></g></g></g></svg>