<?xml version="1.0" encoding="UTF-8"?>
<svg width="21px" height="26px" viewBox="0 0 21 26" version="1.1" xmlns="http://www.w3.org/2000/svg" xmlns:xlink="http://www.w3.org/1999/xlink">
    <!-- Generator: sketchtool 40.1 (33804) - http://www.bohemiancoding.com/sketch -->
    <title>B7CAAE41-B662-418D-BFE0-D4CDC476BDF6</title>
    <desc>Created with sketchtool.</desc>
    <defs></defs>
    <g id="Symbols" stroke="none" stroke-width="1" fill="none" fill-rule="evenodd">
        <g id="icon-sale-white" fill="#FFFFFF">
            <path d="M8.42676427,23 L0,23 L0,0 L14,0 L20,6 L20,14.4994507 C19.3972969,14.0467428 18.7241718,13.6827223 18,13.4267643 L18,8 L12,8 L12,2 L2,2 L2,21 L8.01640228,21 C8.06227688,21.6969662 8.2033586,22.3679272 8.42676427,23 Z M10.4009315,15 L4,15 L4,17 L8.86504659,17 C9.26219629,16.2486799 9.78322326,15.5729479 10.4009315,15 Z M14,3 L17,6 L14,6 L14,3 Z M4,10 L16,10 L16,12 L4,12 L4,10 Z M4,5 L10,5 L10,7 L4,7 L4,5 Z M21,20.5 C21,17.4624339 18.5375661,15 15.5,15 C12.4624339,15 10,17.4624339 10,20.5 C10,23.5375661 12.4624339,26 15.5,26 C18.5375661,26 21,23.5375661 21,20.5 Z"></path>
        </g>
    </g>
</svg>