<?xml version="1.0" encoding="UTF-8"?>
<svg width="26px" height="26px" viewBox="0 0 26 26" version="1.1" xmlns="http://www.w3.org/2000/svg" xmlns:xlink="http://www.w3.org/1999/xlink">
    <!-- Generator: sketchtool 40.1 (33804) - http://www.bohemiancoding.com/sketch -->
    <title>B38674BE-4CA1-43B9-A258-C75A05EF0BF8</title>
    <desc>Created with sketchtool.</desc>
    <defs></defs>
    <g id="Symbols" stroke="none" stroke-width="1" fill="none" fill-rule="evenodd">
        <g id="icon-rent-white" fill="#FFFFFF">
            <path d="M3.80122272,6.98858844 C2.64994258,8.74886231 2.01579285,10.8227455 2.01579285,13 C2.01579285,19.0751322 6.9406606,24 13.0157928,24 C19.0909251,24 24.0157928,19.0751322 24.0157928,13 C24.0157928,6.92486775 19.0909251,2 13.0157928,2 C11.8866035,2 10.7826078,2.16951281 9.72900605,2.49888171 L9.13226069,0.58998282 C10.3586264,0.206605749 11.663082,0 13.0157928,0 C20.1954946,0 26.0157928,5.82029825 26.0157928,13 C26.0157928,20.1797017 20.1954946,26 13.0157928,26 C5.8360911,26 0.0157928471,20.1797017 0.0157928471,13 C0.0157928471,10.2281473 0.883299313,7.65891164 2.36161973,5.54898546 L0,3.18736572 L7.3555275,2.13657608 L6.30473785,9.49210358 L3.80122272,6.98858844 L3.80122272,6.98858844 Z M14.0157928,12.8452995 L14.0157928,5 L12.0157928,5 L12.0157928,14 L17.2119453,17 L18.2119453,15.2679492 L14.0157928,12.8452995 Z"></path>
        </g>
    </g>
</svg>