<svg xmlns="http://www.w3.org/2000/svg" width="24" height="24" viewBox="0 0 24 24"><defs><style>.a{fill:none;}.b{fill:#80868b;}</style></defs><g transform="translate(-392 -114)"><rect class="a" width="24" height="24" transform="translate(392 114)"/><g transform="translate(395.196 117.195)"><path class="b" d="M-1180.71-26.074c-1.668-1.668-1.477-3.9-1.477-7.321,0-3.346-.217-5.629,1.477-7.321a5.258,5.258,0,0,1,3.695-1.424c1.621-.072,5.634-.076,7.254,0,3.314.152,4.972,2.027,5.117,5.117.072,1.622.077,5.633,0,7.254-.121,2.619-1.351,4.076-2.983,4.71-1.2.464-2.37.462-5.763.462-.686,0-1.329.01-1.933.01C-1177.63-24.587-1179.363-24.727-1180.71-26.074Zm13.513-1.12c1.091-1.1,1.021-2.576,1.022-6.2,0-2.349-.01-2.628-.051-3.556-.185-4.068-3.252-3.659-7.161-3.659l-.033-.022c-2.353,0-2.628.011-3.562.044-4.069.208-3.652,3.127-3.652,7.181,0,3-.224,4.971,1.013,6.2,1.073,1.076,2.544,1.022,6.213,1.022C-1169.848-26.183-1168.308-26.084-1167.2-27.194Zm-10.71-6.2a4.517,4.517,0,0,1,4.518-4.518,4.517,4.517,0,0,1,4.518,4.518,4.518,4.518,0,0,1-4.518,4.518A4.517,4.517,0,0,1-1177.907-33.395Zm1.586,0a2.931,2.931,0,0,0,2.932,2.932,2.93,2.93,0,0,0,2.932-2.932,2.932,2.932,0,0,0-2.932-2.933A2.932,2.932,0,0,0-1176.322-33.395Zm6.574-4.7a1.056,1.056,0,0,1,1.056-1.056,1.056,1.056,0,0,1,1.056,1.056,1.056,1.056,0,0,1-1.056,1.056A1.056,1.056,0,0,1-1169.748-38.091Z" transform="translate(1182.196 42.196)"/></g></g></svg>