<svg xmlns="http://www.w3.org/2000/svg" width="16" height="16" viewBox="0 0 16 16"><defs><style>.a{fill:none;}.b{fill:#2196f3;}</style></defs><g transform="translate(-856.487 -267.487)"><rect class="a" width="16" height="16" transform="translate(856.487 267.487)"/><path class="b" d="M5,15.165a1.615,1.615,0,0,1-1.144-.474L.4,11.234a.953.953,0,0,1,0-1.348h0a.953.953,0,0,1,1.348,0L5,13.14,13.61,4.531a.953.953,0,0,1,1.348,0h0a.953.953,0,0,1,0,1.348L6.144,14.691A1.615,1.615,0,0,1,5,15.165Z" transform="translate(856.81 265.779)"/></g></svg>