<svg xmlns="http://www.w3.org/2000/svg" width="24" height="24" viewBox="0 0 24 24"><defs><style>.a{fill:none;}.b{fill:#000;}</style></defs><g transform="translate(-1172 -465)"><rect class="a" width="24" height="24" transform="translate(1172 465)"/><g transform="translate(1173.627 466.22)"><path class="b" d="M6.864,5.729h13.83a.864.864,0,1,0,0-1.729H6.864a.864.864,0,0,0,0,1.729Z" transform="translate(-0.814 -0.136)"/><path class="b" d="M20.695,11H6.864a.864.864,0,0,0,0,1.729h13.83a.864.864,0,1,0,0-1.729Z" transform="translate(-0.814 -1.085)"/><path class="b" d="M20.695,18H6.864a.864.864,0,1,0,0,1.729h13.83a.864.864,0,1,0,0-1.729Z" transform="translate(-0.814 -2.034)"/><path class="b" d="M1.729,0A1.729,1.729,0,1,1,0,1.729,1.729,1.729,0,0,1,1.729,0Z" transform="translate(0 3)"/><path class="b" d="M1.729,0A1.729,1.729,0,1,1,0,1.729,1.729,1.729,0,0,1,1.729,0Z" transform="translate(0 9.051)"/><path class="b" d="M1.729,0A1.729,1.729,0,1,1,0,1.729,1.729,1.729,0,0,1,1.729,0Z" transform="translate(0 15.102)"/></g></g></svg>