<svg xmlns="http://www.w3.org/2000/svg" width="146" height="36" viewBox="0 0 146 36"><defs><style>.a{fill:#2196f3;}.b{fill:#fff;}.c{fill:none;}.d{fill:#0e1013;}</style></defs><g transform="translate(-447 -35)"><g transform="translate(448.012 37.024)"><path class="a" d="M16.491,32.386A16.344,16.344,0,0,0,32.982,16.193,16.344,16.344,0,0,0,16.491,0,16.344,16.344,0,0,0,0,16.193,16.344,16.344,0,0,0,16.491,32.386Z"/><g transform="translate(8.367 8.328)"><path class="b" d="M16.045,12.565a.775.775,0,0,0-.064-1.109L8.72,5.1a.905.905,0,0,0-1.181.014L.253,11.8A.77.77,0,0,0,.217,12.9l.183.19a.8.8,0,0,0,1.093.084l.545-.488v7.139a.792.792,0,0,0,.793.793h2.84a.792.792,0,0,0,.793-.793V14.833h3.623v4.995a.749.749,0,0,0,.745.792h3.01a.792.792,0,0,0,.793-.793V12.789l.336.295c.185.163.574.032.869-.292Z" transform="translate(0 -4.89)"/></g></g><rect class="c" width="146" height="36" transform="translate(447 35)"/><path class="d" d="M-53.459-.235h13.848V-3.842h-9.473V-9.1h8.937v-3.419h-8.937v-5.012h9.473v-3.607H-53.459Zm20.743,0h4.766l5.331-15.528h-4.418l-3.2,11.791h-.087l-3.245-11.791h-4.519ZM-14.61.083c4.433,0,6.576-2.622,7.054-4.911l.043-.159h-3.882l-.029.087a3.132,3.132,0,0,1-3.1,1.825c-2.158,0-3.505-1.449-3.549-3.926h10.69V-8.3c0-4.693-2.854-7.779-7.4-7.779s-7.46,3.158-7.46,8.1v.014C-22.244-3-19.361.083-14.61.083Zm-.1-13.008c1.753,0,3.013,1.115,3.274,3.259h-6.591C-17.753-11.766-16.449-12.924-14.711-12.924Zm9.5,12.689h4.23V-8.927c0-2.26,1.217-3.505,3.3-3.505a4.39,4.39,0,0,1,1.535.232v-3.723a4.77,4.77,0,0,0-1.217-.159A3.534,3.534,0,0,0-.892-13.055H-.979v-2.709h-4.23ZM8.016,4.878c3.448,0,5.533-1.173,6.75-4.838l5.331-15.8H15.636L12.348-3.625h-.116L8.958-15.764H4.308L9.8-.235,9.61.272c-.377,1.057-1.072,1.42-2.332,1.42a7.358,7.358,0,0,1-1.42-.145V4.69A13.393,13.393,0,0,0,8.016,4.878ZM21.821.011a2.337,2.337,0,0,0,2.347-2.347,2.328,2.328,0,0,0-2.347-2.347,2.319,2.319,0,0,0-2.347,2.347A2.328,2.328,0,0,0,21.821.011Zm9.6.043a5.327,5.327,0,0,0,4.708-2.738h.058V-.235h2.52V-10.65c0-3.013-2.231-4.94-5.794-4.94s-5.707,2-5.925,4.476l-.014.159h2.434l.029-.13c.29-1.347,1.506-2.274,3.448-2.274,2.1,0,3.3,1.115,3.3,2.955v1.26L31.874-8.9c-3.462.2-5.461,1.811-5.461,4.375v.029C26.413-1.756,28.426.054,31.425.054ZM28.991-4.494v-.029c0-1.405,1.159-2.3,3.172-2.419l4.027-.246v1.231a3.944,3.944,0,0,1-4.2,3.824C30.179-2.133,28.991-3.045,28.991-4.494ZM41.449-.235H52.689V-2.321H44.375v-.043l8.271-11.1V-15.3H41.463v2.086h8.315v.043L41.449-2.032Z" transform="translate(539.56 61.347)"/></g></svg>