<svg xmlns="http://www.w3.org/2000/svg" width="24" height="24" viewBox="0 0 24 24"><defs><style>.a{fill:none;opacity:0;}.b{fill:#0E1013;}</style></defs><g transform="translate(-1840 -27)"><rect class="a" width="24" height="24" transform="translate(1840 27)"/><g transform="translate(1841.251 27.834)"><path class="b" d="M-3465.1,852a1.147,1.147,0,0,1-1.146-1.146,1.147,1.147,0,0,1,1.146-1.146h19.707a1.147,1.147,0,0,1,1.146,1.146A1.147,1.147,0,0,1-3445.4,852Zm0-6.27a1.147,1.147,0,0,1-1.146-1.146,1.147,1.147,0,0,1,1.146-1.146h19.707a1.147,1.147,0,0,1,1.146,1.146,1.147,1.147,0,0,1-1.146,1.146Zm0-6.27a1.147,1.147,0,0,1-1.146-1.146,1.147,1.147,0,0,1,1.146-1.146h19.707a1.147,1.147,0,0,1,1.146,1.146,1.147,1.147,0,0,1-1.146,1.146Z" transform="translate(3466 -833.416)"/></g></g></svg>