<svg xmlns="http://www.w3.org/2000/svg" xmlns:xlink="http://www.w3.org/1999/xlink" width="56" height="56" viewBox="0 0 56 56"><defs><style>.a{fill:#fff;}.b{fill:url(#a);}.c{fill:#ff7e00;}.d{fill:url(#b);}.e{fill:url(#c);}.f{fill:url(#d);}.g{fill:url(#f);}.h{fill:url(#g);}.i{fill:url(#h);}</style><linearGradient id="a" x1="0.109" y1="0.165" x2="0.561" y2="0.605" gradientUnits="objectBoundingBox"><stop offset="0" stop-color="#ffc68e"/><stop offset="1" stop-color="#ff7e00"/></linearGradient><linearGradient id="b" x1="-0.057" y1="0.8" x2="0.771" y2="-0.029" gradientUnits="objectBoundingBox"><stop offset="0.1" stop-color="#ff7e00" stop-opacity="0.6"/><stop offset="0.3" stop-color="#ffaf62" stop-opacity="0.702"/><stop offset="0.5" stop-color="#ffead6" stop-opacity="0.6"/><stop offset="0.5" stop-color="#ffe2c6" stop-opacity="0.6"/><stop offset="0.6" stop-color="#ffd6ae" stop-opacity="0.702"/><stop offset="0.6" stop-color="#ffcd9d" stop-opacity="0.8"/><stop offset="0.7" stop-color="#ffc892" stop-opacity="0.902"/><stop offset="0.7" stop-color="#ffc68f"/><stop offset="0.8" stop-color="#ffb369" stop-opacity="0.902"/><stop offset="0.9" stop-color="#ff830a" stop-opacity="0.6"/><stop offset="0.9" stop-color="#ff7e00" stop-opacity="0.6"/></linearGradient><linearGradient id="c" x1="-0.03" y1="0.793" x2="0.771" y2="-0.011" xlink:href="#b"/><linearGradient id="d" x1="1" y1="0.225" x2="0.225" y2="1.025" xlink:href="#b"/><linearGradient id="f" x1="1" y1="0.225" x2="0.205" y2="1.025" xlink:href="#b"/><linearGradient id="g" x1="1.03" y1="0.207" x2="0.229" y2="1.011" gradientUnits="objectBoundingBox"><stop offset="0.1" stop-color="#ff7e00" stop-opacity="0.6"/><stop offset="0.3" stop-color="#f66800" stop-opacity="0.8"/><stop offset="0.5" stop-color="#f25d00"/><stop offset="0.7" stop-color="#f56500" stop-opacity="0.902"/><stop offset="0.9" stop-color="#fe7a00" stop-opacity="0.6"/><stop offset="0.9" stop-color="#ff7e00" stop-opacity="0.6"/></linearGradient><linearGradient id="h" x1="1.018" y1="0.207" x2="0.237" y2="1.011" xlink:href="#g"/></defs><g transform="translate(-462 -1910)"><circle class="a" cx="28" cy="28" r="28" transform="translate(462 1910)"/><g transform="translate(460.811 1908.867)"><path class="a" d="M25.453,35.293h4.27a11.433,11.433,0,0,0,11.55-11.453H27.588V12H25.453A11.474,11.474,0,0,0,14,23.453v.388A11.5,11.5,0,0,0,25.453,35.39Z"/><path class="b" d="M25.453,35.293h4.27a11.433,11.433,0,0,0,11.55-11.453H27.588V12H25.453A11.474,11.474,0,0,0,14,23.453v.388A11.5,11.5,0,0,0,25.453,35.39Z"/><path class="c" d="M41.176,24.194H14A11.647,11.647,0,0,0,25.647,35.647h3.882A11.647,11.647,0,0,0,41.176,24Z" transform="translate(0 -0.353)"/><path class="c" d="M43.14,21.876a2.038,2.038,0,1,0,0-4.076,1.99,1.99,0,0,0,0,3.979Z" transform="translate(-0.799 -0.171)"/><path class="d" d="M41.394,19.741a1.74,1.74,0,0,1,1.747-1.747,1.677,1.677,0,0,1,1.262.485l.194-.1a2.14,2.14,0,0,0-1.456-.582A1.941,1.941,0,0,0,41.2,19.741a1.7,1.7,0,0,0,.582,1.456l.1-.1a2.1,2.1,0,0,1-.485-1.359Z" transform="translate(-0.801 -0.171)"/><path class="c" d="M20.85,37.1a4.95,4.95,0,0,0,0,9.9,4.951,4.951,0,0,0,0-9.9Zm0,6.891a1.941,1.941,0,0,1-1.941-1.941,2.013,2.013,0,0,1,1.941-1.941,2.087,2.087,0,0,1,1.941,1.941A2.013,2.013,0,0,1,20.85,43.991ZM35.408,37.1a4.95,4.95,0,0,0,0,9.9,4.853,4.853,0,0,0,4.853-4.853A4.912,4.912,0,0,0,35.408,37.1Zm0,6.891a1.941,1.941,0,0,1-1.941-1.941,1.887,1.887,0,0,1,1.941-1.941,2.087,2.087,0,0,1,1.941,1.941A2.013,2.013,0,0,1,35.408,43.991Z" transform="translate(-0.056 -0.739)"/><path class="e" d="M16.481,42.05a4.368,4.368,0,0,1,7.473-2.912l.388-.485a4.878,4.878,0,1,0-6.891,6.891l.388-.388A4.187,4.187,0,0,1,16.481,42.05Z" transform="translate(-0.055 -0.739)"/><path class="f" d="M22.891,42.15a1.945,1.945,0,0,1-1.941,1.941,1.975,1.975,0,0,1-1.456-.582L19.3,43.7a2,2,0,0,0,1.65.679,2.258,2.258,0,0,0,2.232-2.232A2.753,2.753,0,0,0,22.5,40.5l-.194.291a2.439,2.439,0,0,1,.582,1.359Z" transform="translate(-0.156 -0.839)"/><path class="e" d="M31.381,42.05a4.368,4.368,0,0,1,7.473-2.912l.388-.485A4.7,4.7,0,0,0,35.749,37.1a4.853,4.853,0,0,0-3.4,8.444l.388-.388a4.187,4.187,0,0,1-1.359-3.106Z" transform="translate(-0.493 -0.739)"/><path class="g" d="M37.794,42.15a1.945,1.945,0,0,1-1.941,1.941,2.14,2.14,0,0,1-1.456-.582l-.1.194a1.931,1.931,0,0,0,1.553.679A2.265,2.265,0,0,0,37.406,40.5l-.194.291a2.18,2.18,0,0,1,.582,1.359Z" transform="translate(-0.598 -0.839)"/><path class="h" d="M25.262,42.094A4.368,4.368,0,0,1,17.788,45.1l-.388.485a5.177,5.177,0,0,0,3.494,1.456,4.853,4.853,0,0,0,3.4-8.444l-.388.485a3.834,3.834,0,0,1,1.359,3.009Z" transform="translate(-0.1 -0.783)"/><path class="i" d="M40.259,42.094A4.368,4.368,0,0,1,32.785,45.1l-.485.485a5.177,5.177,0,0,0,3.494,1.456A4.853,4.853,0,0,0,39.288,38.6l-.485.485a3.636,3.636,0,0,1,1.456,3.009Z" transform="translate(-0.539 -0.783)"/></g></g></svg>