<svg xmlns="http://www.w3.org/2000/svg" xmlns:xlink="http://www.w3.org/1999/xlink" width="56" height="56" viewBox="0 0 56 56"><defs><style>.a{fill:#fff;}.b{fill:url(#a);}.c{fill:url(#b);}.d{fill:url(#c);}</style><linearGradient id="a" x1="0.162" y1="0.112" x2="0.734" y2="0.712" gradientUnits="objectBoundingBox"><stop offset="0.3" stop-color="#fc944f"/><stop offset="0.7" stop-color="#ff7e00"/></linearGradient><linearGradient id="b" x1="0.213" y1="0.407" x2="1.081" y2="1.552" gradientUnits="objectBoundingBox"><stop offset="0" stop-color="#ff7e00" stop-opacity="0.702"/><stop offset="0.2" stop-color="#ffe3c8"/><stop offset="0.4" stop-color="#ff7f01"/></linearGradient><linearGradient id="c" x1="0.533" y1="0.022" x2="0.533" y2="1" gradientUnits="objectBoundingBox"><stop offset="0" stop-color="#ffb064"/><stop offset="0.8" stop-color="#ff7f01"/></linearGradient></defs><g transform="translate(-462 -1910)"><circle class="a" cx="28" cy="28" r="28" transform="translate(462 1910)"/><g transform="translate(464.711 1914.05)"><path class="b" d="M38.577,37.344A1.661,1.661,0,0,1,36.916,39H13.661A1.661,1.661,0,0,1,12,37.344V21.231a1.623,1.623,0,0,1,.581-1.246l11.628-9.967a1.661,1.661,0,0,1,2.159,0L38,19.985a1.623,1.623,0,0,1,.581,1.246V37.344Z" transform="translate(0 -0.105)"/><g transform="translate(12 9)"><path class="c" d="M13.246,21.043,12,20.378,25.289,9v1.661L13.246,20.96Z" transform="translate(-12 -9)"/><path class="d" d="M13.246,23.364,12,22.7V41.221h1.246Z" transform="translate(-12 -11.322)"/></g><path class="a" d="M22.076,28.153a2.056,2.056,0,0,0,2.076-2.076A2.007,2.007,0,0,0,22.076,24a2.076,2.076,0,1,0,0,4.153ZM30.8,36.873a2.035,2.035,0,1,1,.083,0ZM31.212,24,20,35.129l1.744,1.744L32.956,25.744Z" transform="translate(-1.356 -2.542)"/></g></g></svg>