<svg xmlns="http://www.w3.org/2000/svg" xmlns:xlink="http://www.w3.org/1999/xlink" width="56" height="56" viewBox="0 0 56 56"><defs><style>.a{fill:#fff;}.b{fill:url(#a);}.c{fill:#3ac400;}.d{fill:url(#b);}.e{fill:#66e530;}.f{fill:#45ca0d;}.g{fill:#e1ffd4;}.h{fill:#97f56f;}.i{fill:#3ec605;}.j{fill:#4acd13;}.k{fill:#60d92d;}.l{fill:#6ee13e;}.m{fill:#7ce84f;}.n{fill:#5fd82c;}.o{fill:#3cc502;}.p{fill:#3bc501;}.q{fill:#3ac500;}.r{fill:url(#c);}</style><linearGradient id="a" x1="0.167" y1="0.128" x2="0.809" y2="0.869" gradientUnits="objectBoundingBox"><stop offset="0" stop-color="#60e12a"/><stop offset="0.498" stop-color="#3ac400"/><stop offset="1" stop-color="#60e12a"/></linearGradient><linearGradient id="b" x1="0.118" y1="0.222" x2="0.632" y2="0.645" gradientUnits="objectBoundingBox"><stop offset="0" stop-color="#5fe028"/><stop offset="1" stop-color="#3ac400"/></linearGradient><linearGradient id="c" x1="0.074" y1="0.156" x2="0.943" y2="0.865" gradientUnits="objectBoundingBox"><stop offset="0" stop-color="#77f143"/><stop offset="0.5" stop-color="#50d717"/><stop offset="0.8" stop-color="#3ac400"/></linearGradient></defs><g transform="translate(-462 -1910)"><circle class="a" cx="28" cy="28" r="28" transform="translate(462 1910)"/><g transform="translate(464.243 1912.219)"><path class="b" d="M-199.074-22.429l.622-.534a14.731,14.731,0,0,0,10.4,4.447V-18.6a14.406,14.406,0,0,0,13.039-8.32,14.405,14.405,0,0,0-2.007-15.33l-.094.082a14.2,14.2,0,0,0-11.027-5.158l.088-.088a14.406,14.406,0,0,0-13.338,8.766,14.407,14.407,0,0,0,2.933,15.69l-.622.534A15.3,15.3,0,0,1-202.028-38.9a15.3,15.3,0,0,1,13.893-9.322A15.488,15.488,0,0,1-176.4-42.8l.095-.083a15.3,15.3,0,0,1-1.157,21.61,15.247,15.247,0,0,1-10.222,3.92A15.263,15.263,0,0,1-199.074-22.429Z" transform="translate(214.032 58.998)"/><path class="c" d="M25.986,42.972A16.935,16.935,0,1,1,32.6,41.636,16.88,16.88,0,0,1,25.986,42.972Zm0-32.193A15.207,15.207,0,1,0,41.193,25.986,15.224,15.224,0,0,0,25.986,10.779Z"/><path class="d" d="M25.957,9.955a16.1,16.1,0,0,0-10.4,28.28l-.623.623A16.9,16.9,0,1,1,39.474,15.735l-.711.445A16.008,16.008,0,0,0,25.957,9.955Z" transform="translate(-0.06 -0.065)"/><path class="e" d="M18.536,26.2,13.2,31l.8-.178,4.98-4.535-.445-.089Z" transform="translate(-0.465 -1.904)"/><path class="f" d="M18.868,25.37h.445l-2.49-6.225L16.2,18.7Z" transform="translate(-0.797 -1.074)"/><path class="g" d="M23.214,19.856,16.1,18.7l.711.445,6.581,1.067-.178-.356Z" transform="translate(-0.786 -1.074)"/><path class="h" d="M27.657,12.9,24.1,19.214l.267.356,3.29-5.958V12.9Z" transform="translate(-1.671 -0.432)"/><path class="i" d="M28.1,13.623V13l3.557,6.225-.178.445L28.1,13.711Zm9.96,4.891-6.492,1.067.178-.356,7.114-1.156-.711.445Z" transform="translate(-2.114 -0.443)"/><path class="j" d="M38.99,19.145l.623-.445-2.668,6.67H36.5Z" transform="translate(-3.044 -1.074)"/><path class="k" d="M41.569,30.824,36.5,26.289l.445-.089L42.281,31Z" transform="translate(-3.044 -1.904)"/><path class="l" d="M35.256,33.623,42.1,31.578l-.711-.178L34.9,33.268l.356.356Z" transform="translate(-2.867 -2.479)"/><path class="m" d="M34.3,40.348l.534-6.848.356.356-.534,7.114Z" transform="translate(-2.8 -2.712)"/><path class="n" d="M28.1,37.334l5.869,4.091-.356-.711L28.1,36.8v.534Z" transform="translate(-2.114 -3.077)"/><path class="o" d="M21.856,40.713,27.369,36.8v.534L21.5,41.424Z" transform="translate(-1.384 -3.077)"/><path class="p" d="M20.989,33.945l.445,7.114.356-.711L21.256,33.5l-.356.356Z" transform="translate(-1.317 -2.712)"/><path class="p" d="M13.911,31.4,20.4,33.268l-.356.356L13.2,31.578,14,31.4Z" transform="translate(-0.465 -2.479)"/><path class="q" d="M26.539,13.7l3.379,5.958L36.5,18.591l-2.49,6.225,5.069,4.624-6.492,1.868-.534,6.848-5.514-3.913-5.514,3.913-.534-6.848L14,29.441l5.069-4.535-2.49-6.314,6.581,1.067L26.539,13.7Z" transform="translate(-0.553 -0.52)"/><path class="r" d="M26.539,13.7l3.379,5.958L36.5,18.591l-2.49,6.225,5.069,4.624-6.492,1.868-.534,6.848-5.514-3.913-5.514,3.913-.534-6.848L14,29.441l5.069-4.535-2.49-6.314,6.581,1.067L26.539,13.7Z" transform="translate(-0.553 -0.52)"/></g></g></svg>