<svg xmlns="http://www.w3.org/2000/svg" xmlns:xlink="http://www.w3.org/1999/xlink" width="56" height="56" viewBox="0 0 56 56"><defs><style>.a{fill:#fff;}.b{fill:#ffc42c;}.c{fill:url(#a);}.d{fill:url(#b);}.e{fill:url(#c);}.f{fill:url(#d);}</style><linearGradient id="a" x1="0.098" y1="0.207" x2="0.918" y2="0.78" gradientUnits="objectBoundingBox"><stop offset="0" stop-color="#ffe48d"/><stop offset="1" stop-color="#ffc42c"/></linearGradient><linearGradient id="b" x1="0.277" y1="0.369" x2="0.882" y2="0.809" gradientUnits="objectBoundingBox"><stop offset="0" stop-color="#f6ba23"/><stop offset="1" stop-color="#ffe48e"/></linearGradient><linearGradient id="c" x1="0.5" x2="0.5" y2="1" gradientUnits="objectBoundingBox"><stop offset="0" stop-color="#6fd545"/><stop offset="0.167" stop-color="#a5e58b"/><stop offset="0.462" stop-color="#3ac002"/><stop offset="1" stop-color="#3ac500"/></linearGradient><linearGradient id="d" x1="0.5" x2="0.5" y2="1" gradientUnits="objectBoundingBox"><stop offset="0" stop-color="#feda64"/><stop offset="0.157" stop-color="#ffe99f"/><stop offset="1" stop-color="#ffce2c"/></linearGradient></defs><g transform="translate(-462 -1910)"><circle class="a" cx="28" cy="28" r="28" transform="translate(462 1910)"/><g transform="translate(462.877 1910.322)"><circle class="b" cx="8.947" cy="8.947" r="8.947" transform="translate(18.176 28.462)"/><path class="c" d="M36.194,39.047A8.947,8.947,0,1,1,27.247,30.1a8.947,8.947,0,0,1,8.947,8.947Zm-17.341,0a8.44,8.44,0,1,0,8.44-8.44,8.44,8.44,0,0,0-8.44,8.44Z" transform="translate(-0.124 -1.638)"/><path class="d" d="M1.911,12.333a7.375,7.375,0,0,1-1.7-6.695,6.64,6.64,0,0,0,2.257,6.234l-.046.046A6.652,6.652,0,0,0,11.78,2.464,6.643,6.643,0,0,0,5.167.346L5.05.376A7.379,7.379,0,0,1,12.333,1.91V1.819A7.4,7.4,0,1,1,1.911,12.333ZM.281,5.281A6.644,6.644,0,0,1,5.05.376,7.386,7.386,0,0,0,.207,5.638Q.239,5.459.281,5.281Z" transform="translate(20.047 30.241)"/><path class="e" d="M16.7,9H37.546V23.574L27.123,27.724,16.7,23.574Z" transform="translate(0 0)"/><path class="f" d="M21.6,9H33.5V25.326l-6,2.4-5.9-2.4V9Z" transform="translate(-0.38 0)"/><path class="e" d="M25.6,9h4.52V26.8l-2.306.922L25.6,26.8Z" transform="translate(-0.691 0)"/><path class="a" d="M27.5,33l1.384,4.335H33.5l-3.69,2.583,1.384,4.335L27.5,41.578l-3.69,2.675,1.476-4.335L21.6,37.335h4.612Z" transform="translate(-0.38 -1.863)"/></g></g></svg>