<svg xmlns="http://www.w3.org/2000/svg" width="56" height="56" viewBox="0 0 56 56"><defs><style>.a{fill:none;}.b{fill:#b0bec5;}.c{fill:#eceff1;}.d{fill:#90a4ae;}.e{fill:#2196f3;}.f{fill:#fff;}</style></defs><g transform="translate(-478 -1611)"><rect class="a" width="56" height="56" transform="translate(478 1611)"/><g transform="translate(481.137 1614.137)"><g transform="translate(5.698)"><path class="b" d="M4.822,11.4A2.073,2.073,0,0,1,2.75,9.324V2.072a2.072,2.072,0,1,1,4.144,0V9.324A2.073,2.073,0,0,1,4.822,11.4Z" transform="translate(-2.75)"/><path class="b" d="M9.572,11.4A2.073,2.073,0,0,1,7.5,9.324V2.072a2.072,2.072,0,1,1,4.144,0V9.324A2.073,2.073,0,0,1,9.572,11.4Z" transform="translate(2.342)"/><path class="b" d="M14.322,11.4A2.073,2.073,0,0,1,12.25,9.324V2.072a2.072,2.072,0,1,1,4.144,0V9.324A2.073,2.073,0,0,1,14.322,11.4Z" transform="translate(7.433)"/></g><path class="c" d="M29.525,2.25H5.7A5.7,5.7,0,0,0,0,7.948V35.4a5.7,5.7,0,0,0,5.7,5.7H19.352a18.091,18.091,0,0,1-1.74-7.77A18.157,18.157,0,0,1,35.223,15.22V7.948A5.7,5.7,0,0,0,29.525,2.25Z" transform="translate(0 2.412)"/><path class="d" d="M19.845,11.021A17.986,17.986,0,0,0,16.7,15.144H5.072a2.072,2.072,0,0,1,0-4.144h14.5A1.181,1.181,0,0,1,19.845,11.021Z" transform="translate(3.216 11.791)"/><path class="d" d="M13.36,11.144H5.072A2.072,2.072,0,0,1,5.072,7H13.36a2.072,2.072,0,0,1,0,4.144Z" transform="translate(3.216 7.503)"/><path class="e" d="M24.485,38.471A13.985,13.985,0,1,1,38.471,24.485,14,14,0,0,1,24.485,38.471Z" transform="translate(11.255 11.255)"/><path class="f" d="M18.322,29.039a2.073,2.073,0,0,1-2.072-2.072v-11.4a2.072,2.072,0,1,1,4.144,0v11.4A2.073,2.073,0,0,1,18.322,29.039Z" transform="translate(17.419 14.471)"/><path class="f" d="M26.967,20.394h-11.4a2.072,2.072,0,1,1,0-4.144h11.4a2.072,2.072,0,1,1,0,4.144Z" transform="translate(14.471 17.419)"/></g></g></svg>