<svg xmlns="http://www.w3.org/2000/svg" width="56" height="56" viewBox="0 0 56 56"><defs><style>.a{fill:none;}.b{fill:#eceff1;}.c{fill:#90a4ae;}.d{fill:#2196f3;}</style></defs><g transform="translate(-478 -1611)"><rect class="a" width="56" height="56" transform="translate(478 1611)"/><g transform="translate(481.805 1614.806)"><path class="b" d="M28.731,0H5.545A5.541,5.541,0,0,0,0,5.545V36.8A5.541,5.541,0,0,0,5.545,42.34H21.956a14.391,14.391,0,0,1-2.8-8.569A14.628,14.628,0,0,1,33.771,19.154a4.214,4.214,0,0,1,.5.02V5.545A5.541,5.541,0,0,0,28.731,0Z"/><g transform="translate(6.049 8.065)"><path class="c" d="M23.162,12.032H5.016A2.016,2.016,0,1,1,5.016,8H23.162a2.016,2.016,0,0,1,0,4.032Z" transform="translate(-3 0.065)"/><path class="c" d="M15.1,16.032H5.016a2.016,2.016,0,1,1,0-4.032H15.1a2.016,2.016,0,1,1,0,4.032Z" transform="translate(-3 4.13)"/><path class="c" d="M13.081,8.032H5.016A2.016,2.016,0,1,1,5.016,4h8.065a2.016,2.016,0,0,1,0,4.032Z" transform="translate(-3 -4)"/></g><path class="d" d="M22.085,32.67A10.585,10.585,0,1,1,32.67,22.085,10.6,10.6,0,0,1,22.085,32.67Zm0-17.138a6.553,6.553,0,1,0,6.553,6.553A6.56,6.56,0,0,0,22.085,15.532Z" transform="translate(11.686 11.686)"/><path class="d" d="M27.319,29.335a2.011,2.011,0,0,1-1.425-.591l-6.553-6.553a2.016,2.016,0,1,1,2.851-2.851l6.553,6.553a2.016,2.016,0,0,1-1.425,3.442Z" transform="translate(19.053 19.053)"/></g></g></svg>