<svg xmlns="http://www.w3.org/2000/svg" width="16" height="16" viewBox="0 0 16 16"><defs><style>.a{fill:none;}.b{fill:#0e1013;}</style></defs><g transform="translate(0 -0.226)"><rect class="a" width="16" height="16" transform="translate(0 0.226)"/><path class="b" d="M628.131,558.662l-5.52,5.323a.644.644,0,0,0,0,.955.7.7,0,0,0,.991,0l6.015-5.8a.644.644,0,0,0,0-.955l-6.015-5.8a1.559,1.559,0,0,0-.354-.2h-.354c-.142,0-.212.068-.354.2a1.469,1.469,0,0,0-.212.341v.341c0,.136.071.2.212.341Z" transform="translate(-618.079 -550.662)"/></g></svg>