<svg xmlns="http://www.w3.org/2000/svg" width="24" height="24" viewBox="0 0 24 24"><defs><style>.a{fill:none;}.b{fill:#0e1013;}</style></defs><g transform="translate(-392 -114)"><rect class="a" width="24" height="24" transform="translate(392 114)"/><g transform="translate(392.307 115.265)"><g transform="translate(0.999)"><g transform="translate(0)"><path class="b" d="M20.5,11.385a8.814,8.814,0,0,0,0-1.3l1.622-1.5a.839.839,0,0,0,.155-1.035L19.751,3.188a.839.839,0,0,0-.971-.382l-2.119.649A8.84,8.84,0,0,0,15.528,2.8l-.5-2.151A.839.839,0,0,0,14.216,0H9.17a.839.839,0,0,0-.817.651L7.858,2.8a8.837,8.837,0,0,0-1.132.653L4.607,2.806a.839.839,0,0,0-.971.382L1.112,7.546a.839.839,0,0,0,.155,1.035l1.622,1.5a8.814,8.814,0,0,0,0,1.3l-1.622,1.5a.839.839,0,0,0-.155,1.035l2.523,4.358a.839.839,0,0,0,.971.382l2.119-.649a8.84,8.84,0,0,0,1.132.653l.5,2.151a.839.839,0,0,0,.817.651h5.045a.839.839,0,0,0,.817-.651l.5-2.151a8.837,8.837,0,0,0,1.132-.653l2.119.649a.839.839,0,0,0,.971-.382l2.523-4.358a.839.839,0,0,0-.155-1.035ZM18.789,9.856a7.178,7.178,0,0,1,0,1.759.839.839,0,0,0,.262.717l1.436,1.332-1.853,3.2-1.878-.575a.838.838,0,0,0-.751.133,7.153,7.153,0,0,1-1.526.881.839.839,0,0,0-.491.585l-.439,1.905H9.838L9.4,17.888a.839.839,0,0,0-.491-.585,7.154,7.154,0,0,1-1.526-.881.838.838,0,0,0-.751-.133l-1.878.575L2.9,13.664l1.436-1.332a.839.839,0,0,0,.262-.717,7.178,7.178,0,0,1,0-1.759.839.839,0,0,0-.262-.717L2.9,7.807l1.853-3.2,1.878.575a.839.839,0,0,0,.751-.133,7.153,7.153,0,0,1,1.526-.881A.839.839,0,0,0,9.4,3.583l.439-1.905h3.71l.439,1.905a.839.839,0,0,0,.491.585A7.154,7.154,0,0,1,16,5.048a.838.838,0,0,0,.751.133l1.878-.575,1.853,3.2L19.051,9.139A.838.838,0,0,0,18.789,9.856Z" transform="translate(-0.999)"/><path class="b" d="M179.355,176a3.355,3.355,0,1,0,3.355,3.355A3.359,3.359,0,0,0,179.355,176Zm0,5.032a1.677,1.677,0,1,1,1.677-1.677A1.679,1.679,0,0,1,179.355,181.032Z" transform="translate(-168.661 -168.619)"/></g></g></g></g></svg>