<svg xmlns="http://www.w3.org/2000/svg" width="20" height="20" viewBox="0 0 20 20"><defs><style>.a{fill:none;}.b{fill:#0e1013;}</style></defs><g transform="translate(-1369 -28)"><rect class="a" width="20" height="20" transform="translate(1369 28)"/><g transform="translate(1370.651 29.651)"><path class="b" d="M1.391,7.653H9.044a1.391,1.391,0,0,0,1.391-1.391V1.391A1.391,1.391,0,0,0,9.044,0H1.391A1.391,1.391,0,0,0,0,1.391v4.87A1.391,1.391,0,0,0,1.391,7.653Zm0-6.261H9.044v4.87H1.391Z"/><path class="b" d="M20.479,0H18.391A1.391,1.391,0,0,0,17,1.391v4.87a1.391,1.391,0,0,0,1.391,1.391h2.087A1.391,1.391,0,0,0,21.87,6.261V1.391A1.391,1.391,0,0,0,20.479,0Zm0,6.261H18.391V1.391h2.087Z" transform="translate(-5.173)"/><path class="b" d="M3.479,13H1.391A1.391,1.391,0,0,0,0,14.391v4.87a1.391,1.391,0,0,0,1.391,1.391H3.479A1.391,1.391,0,0,0,4.87,19.261v-4.87A1.391,1.391,0,0,0,3.479,13Zm0,6.261H1.391v-4.87H3.479Z" transform="translate(0 -3.956)"/><path class="b" d="M18.044,13H10.391A1.391,1.391,0,0,0,9,14.391v4.87a1.391,1.391,0,0,0,1.391,1.391h7.653a1.391,1.391,0,0,0,1.391-1.391v-4.87A1.391,1.391,0,0,0,18.044,13Zm0,6.261H10.391v-4.87h7.653Z" transform="translate(-2.739 -3.956)"/></g></g></svg>