<svg xmlns="http://www.w3.org/2000/svg" width="24" height="24" viewBox="0 0 24 24"><defs><style>.a{fill:none;}.b{fill:#80868b;}</style></defs><g transform="translate(-392 -114)"><rect class="a" width="24" height="24" transform="translate(392 114)"/><g transform="translate(393.352 115.413)"><g transform="translate(0.064 0)"><g transform="translate(0 0)"><path class="b" d="M16.511,1.772A10.544,10.544,0,0,0,8.98.135a.906.906,0,0,0-.138.013A10.583,10.583,0,0,0,.222,12.385a10.831,10.831,0,0,0,.333,1.372,7.919,7.919,0,0,1-.4,5.714A.882.882,0,0,0,1.182,20.7l3.954-1.08a10.49,10.49,0,0,0,5.494,1.555,10.654,10.654,0,0,0,2.111-.212,10.584,10.584,0,0,0,3.771-19.19ZM18,15.47A8.818,8.818,0,0,1,5.769,17.93a.88.88,0,0,0-.721-.116l-2.692.735a9.7,9.7,0,0,0-.116-5.316,8.985,8.985,0,0,1-.28-1.15A8.819,8.819,0,0,1,9.027,1.908,1.019,1.019,0,0,0,9.153,1.9,8.819,8.819,0,0,1,18,15.47Z" transform="translate(-0.064 0)"/></g></g><g transform="translate(9.769 5.207)"><path class="b" d="M235.643,125.909a.881.881,0,0,0-.882.882v5.292a.882.882,0,1,0,1.764,0v-5.292A.881.881,0,0,0,235.643,125.909Z" transform="translate(-234.761 -125.909)"/></g><g transform="translate(9.769 14.113)"><path class="b" d="M236.454,341.831a.822.822,0,0,0-.185-.291.839.839,0,0,0-.141-.106.954.954,0,0,0-.317-.132.881.881,0,0,0-.793.238.823.823,0,0,0-.185.291.832.832,0,0,0,0,.67.8.8,0,0,0,.476.476.829.829,0,0,0,.669,0,1.031,1.031,0,0,0,.291-.185,1.019,1.019,0,0,0,.185-.291.831.831,0,0,0,0-.67Z" transform="translate(-234.762 -341.284)"/></g></g></g></svg>