<svg xmlns="http://www.w3.org/2000/svg" width="24" height="24" viewBox="0 0 24 24"><defs><style>.a{fill:none;opacity:0;}.b{fill:#fff;}</style></defs><g transform="translate(-906 -1285)"><rect class="a" width="24" height="24" transform="translate(906 1285)"/><path class="b" d="M-3834.584,20.705a.825.825,0,0,1-.828-.8l-.057-1.841a.834.834,0,0,0-.28-.59A9.816,9.816,0,0,1-3839,10.042,9.977,9.977,0,0,1-3828.647,0a9.977,9.977,0,0,1,10.352,10.042,9.977,9.977,0,0,1-10.352,10.043,11.274,11.274,0,0,1-3-.4.833.833,0,0,0-.218-.029.819.819,0,0,0-.334.071l-2.054.906A.827.827,0,0,1-3834.584,20.705Zm4.079-13.275a1.548,1.548,0,0,0-1.316.724l-3.042,4.825a.473.473,0,0,0-.021.493.51.51,0,0,0,.438.265.488.488,0,0,0,.3-.1l3.268-2.481a.619.619,0,0,1,.376-.126.618.618,0,0,1,.372.123l2.418,1.815a1.539,1.539,0,0,0,.929.31,1.547,1.547,0,0,0,1.317-.725l3.04-4.822a.472.472,0,0,0,.021-.492.51.51,0,0,0-.438-.266.489.489,0,0,0-.3.1l-3.266,2.479a.617.617,0,0,1-.375.126.617.617,0,0,1-.372-.124l-2.418-1.814A1.539,1.539,0,0,0-3830.5,7.431Z" transform="translate(4746.647 1286.647)"/></g></svg>