<svg xmlns="http://www.w3.org/2000/svg" width="24" height="24" viewBox="0 0 24 24"><defs><style>.a{fill:none;}.b{fill:#0e1013;}</style></defs><g transform="translate(-1155.17 -33.17)"><rect class="a" width="24" height="24" transform="translate(1155.17 33.17)"/><g transform="translate(1155.542 35.403)"><path class="b" d="M1.628,0A1.628,1.628,0,1,1,0,1.628,1.628,1.628,0,0,1,1.628,0Z" transform="translate(10)"/><path class="b" d="M1.628,0A1.628,1.628,0,1,1,0,1.628,1.628,1.628,0,0,1,1.628,0Z" transform="translate(10 8.139)"/><path class="b" d="M1.628,0A1.628,1.628,0,1,1,0,1.628,1.628,1.628,0,0,1,1.628,0Z" transform="translate(10 16.278)"/></g></g></svg>