<svg xmlns="http://www.w3.org/2000/svg" width="24" height="24" viewBox="0 0 24 24"><defs><style>.a{fill:none;}.b{fill:#ffb300;}</style></defs><g transform="translate(-710 -335)"><rect class="a" width="24" height="24" transform="translate(710 335)"/><g transform="translate(711.227 273.779)"><path class="b" d="M137.138,809.257a1.206,1.206,0,0,0-1.207-1.207H122.107a1.207,1.207,0,0,0,0,2.413h13.824A1.207,1.207,0,0,0,137.138,809.257Z" transform="translate(-118.246 -727.872)"/><path class="b" d="M1.437,71.617a.5.5,0,0,0,.057,0l1.913,6.924H18.14l1.913-6.924.057,0a1.435,1.435,0,1,0-1.435-1.435,1.4,1.4,0,0,0,.07.441l-3.46,2.023-3.719-6.165a1.435,1.435,0,1,0-1.584,0L6.264,72.646,2.8,70.623a1.461,1.461,0,0,0,.07-.441,1.436,1.436,0,1,0-1.437,1.435Z"/></g></g></svg>