<svg xmlns="http://www.w3.org/2000/svg" xmlns:xlink="http://www.w3.org/1999/xlink" width="191" height="46" viewBox="0 0 191 46">
  <defs>
    <style>
      .cls-1 {
        fill: none;
      }

      .cls-2 {
        fill: url(#linear-gradient);
      }

      .cls-3 {
        fill: url(#linear-gradient-2);
      }

      .cls-4 {
        fill: url(#linear-gradient-3);
      }

      .cls-5 {
        fill: url(#linear-gradient-4);
      }

      .cls-6 {
        fill: url(#linear-gradient-5);
      }

      .cls-7 {
        fill: url(#linear-gradient-6);
      }

      .cls-8 {
        fill: url(#linear-gradient-7);
      }

      .cls-9 {
        fill: url(#linear-gradient-8);
      }

      .cls-10 {
        fill: url(#linear-gradient-11);
      }

      .cls-11 {
        fill: url(#linear-gradient-12);
      }

      .cls-12 {
        fill: #282828;
      }
    </style>
    <linearGradient id="linear-gradient" x1="-1.417" y1="-1.214" x2="-0.551" y2="-1.214" gradientUnits="objectBoundingBox">
      <stop offset="0" stop-color="#f04b23"/>
      <stop offset="1" stop-color="#ffc908"/>
    </linearGradient>
    <linearGradient id="linear-gradient-2" x1="0" y1="0.5" x2="1" y2="0.5" xlink:href="#linear-gradient"/>
    <linearGradient id="linear-gradient-3" x1="0" y1="0.5" x2="1" y2="0.5" xlink:href="#linear-gradient"/>
    <linearGradient id="linear-gradient-4" x1="-1.234" y1="-1.003" x2="-0.368" y2="-1.003" xlink:href="#linear-gradient"/>
    <linearGradient id="linear-gradient-5" x1="0" y1="0.5" x2="1" y2="0.5" xlink:href="#linear-gradient"/>
    <linearGradient id="linear-gradient-6" x1="-1.734" y1="-1.58" x2="-0.868" y2="-1.58" xlink:href="#linear-gradient"/>
    <linearGradient id="linear-gradient-7" x1="-7.902" y1="-8.695" x2="-7.035" y2="-8.695" xlink:href="#linear-gradient"/>
    <linearGradient id="linear-gradient-8" x1="0" y1="0.5" x2="1" y2="0.5" xlink:href="#linear-gradient"/>
    <linearGradient id="linear-gradient-11" x1="0.5" y1="1" x2="0.5" y2="0" xlink:href="#linear-gradient"/>
    <linearGradient id="linear-gradient-12" x1="0.5" y1="1" x2="0.5" y2="0" xlink:href="#linear-gradient"/>
  </defs>
  <g id="smart_bee_main_logo" transform="translate(-552.056 -634.839)">
    <rect id="Rectangle_3" data-name="Rectangle 3" class="cls-1" width="191" height="46" transform="translate(552.056 634.839)"/>
    <g id="Group_2" data-name="Group 2" transform="translate(552.855 634.915)">
      <path id="Path_9" data-name="Path 9" class="cls-2" d="M738.787,866.7h11.974l5.987,10.37-5.987,10.37H738.787L732.8,877.07Z" transform="translate(-732.8 -845.951)"/>
      <path id="Path_10" data-name="Path 10" class="cls-3" d="M744.774,877.07l-5.987,10.37L732.8,877.07l5.987-10.37Z" transform="translate(-732.8 -845.951)"/>
      <path id="Path_11" data-name="Path 11" class="cls-4" d="M1084.762,645.579h-11.974L1066.8,635.2h11.975Z" transform="translate(-1036.864 -635.2)"/>
      <path id="Path_12" data-name="Path 12" class="cls-5" d="M805.587,751h11.974l5.987,10.37-5.987,10.37H805.587L799.6,761.37Z" transform="translate(-793.613 -740.621)"/>
      <path id="Path_13" data-name="Path 13" class="cls-6" d="M811.575,761.37l-5.987,10.37L799.6,761.37,805.587,751Z" transform="translate(-793.613 -740.621)"/>
      <path id="Path_14" data-name="Path 14" class="cls-7" d="M939.187,751h11.974l5.987,10.37-5.987,10.37H939.187L933.2,761.37Z" transform="translate(-915.238 -740.621)"/>
      <path id="Path_15" data-name="Path 15" class="cls-8" d="M1028.217,1059.2h4.033l2.017,3.5-2.017,3.5h-4.033l-2.017-3.5Z" transform="translate(-999.903 -1021.197)"/>
      <path id="Path_16" data-name="Path 16" class="cls-9" d="M744.774,751l-5.987,10.37L732.8,771.74l5.987,10.37,5.987-10.37,5.987-10.37Z" transform="translate(-732.8 -740.621)"/>
      <path id="Path_17" data-name="Path 17" class="cls-4" d="M1084.762,645.579h-11.974L1066.8,635.2h11.975Z" transform="translate(-1036.864 -635.2)"/>
      <path id="Path_18" data-name="Path 18" class="cls-4" d="M1084.762,645.579h-11.974L1066.8,635.2h11.975Z" transform="translate(-1036.864 -635.2)"/>
      <path id="Path_19" data-name="Path 19" class="cls-10" d="M1084.762,751l-5.987,10.37H1066.8v-.009L1072.787,751Z" transform="translate(-1036.864 -740.621)"/>
      <path id="Path_20" data-name="Path 20" class="cls-11" d="M1011.974,645.579l-5.987,10.361L1000,645.579l5.987-10.379Z" transform="translate(-976.051 -635.2)"/>
    </g>
    <g id="Group_1" data-name="Group 1" transform="translate(606.587 647.067)">
      <path id="Path_1" data-name="Path 1" class="cls-12" d="M513.226,1271.116a15.343,15.343,0,0,1-4.9-.865c-.137-.082-.33-.192-.247-.384l.3-1.428c.055-.192.165-.3.3-.3a.536.536,0,0,1,.192.027,14.855,14.855,0,0,0,4.161.7c1.813,0,3.008-.563,3.008-2.005,0-1.84-1.3-1.73-3.145-2.115-1.923-.3-4.684-.81-4.684-4.217,0-3.708,3.3-4.326,5.686-4.326a16.359,16.359,0,0,1,4.381.591.348.348,0,0,1,.3.412l-.247,1.456c-.028.192-.165.275-.385.247a22.272,22.272,0,0,0-3.681-.453c-1.511,0-3.008.385-3.008,1.868,0,1.538,1.483,1.758,3.145,1.978,2.253.357,4.684.728,4.684,4.3C519.1,1270.113,516.4,1271.116,513.226,1271.116Z" transform="translate(-508.056 -1250.402)"/>
      <path id="Path_2" data-name="Path 2" class="cls-12" d="M638.565,1270.446a.364.364,0,0,1-.412.412h-2.225c-.3,0-.439-.137-.439-.412v-9.71c0-1.7-.646-2.225-2.28-2.225a19.183,19.183,0,0,0-4.01.563v11.372a.364.364,0,0,1-.412.412h-2.252a.364.364,0,0,1-.412-.412v-9.71c0-1.7-.618-2.225-2.252-2.225a20.252,20.252,0,0,0-4.065.563v11.372a.364.364,0,0,1-.412.412H617.14c-.3,0-.44-.137-.44-.412v-11.5c0-1,.385-1.456,1.813-1.9a21.977,21.977,0,0,1,5.576-.755,5.647,5.647,0,0,1,3.653.975,18.965,18.965,0,0,1,5.741-.975c3.3,0,5,.92,5,4.038v10.108Z" transform="translate(-601.778 -1250.488)"/>
      <path id="Path_3" data-name="Path 3" class="cls-12" d="M817.171,1267.915c0,1.978-.536,2.376-2.4,2.816a15.7,15.7,0,0,1-3.653.385c-2.706,0-6.414-.193-6.414-4.546,0-3.544,2.115-3.818,4.491-4.244l4.931-.81v-1c0-.837-.055-1.4-.838-1.73a6.094,6.094,0,0,0-2.225-.275,19.6,19.6,0,0,0-4.738.755.618.618,0,0,1-.192.028.356.356,0,0,1-.33-.247l-.33-1.483c-.083-.3.11-.385.3-.467a20.689,20.689,0,0,1,5.823-.893,8.556,8.556,0,0,1,4.038.728c1.4.783,1.538,2.06,1.538,3.489Zm-7.169-3.6c-1.112.22-2.17.33-2.17,2.2,0,2.293,1.923,2.486,3.351,2.486a8.626,8.626,0,0,0,2.925-.44v-4.93Z" transform="translate(-763.958 -1250.402)"/>
      <path id="Path_4" data-name="Path 4" class="cls-12" d="M924.214,1259c0-1.112.481-1.428,1.648-1.84a17.925,17.925,0,0,1,5.329-.755c.33,0,.618.055.618.467v1.538c0,.219-.055.412-.385.412a15.427,15.427,0,0,0-4.134.44v11.29a.364.364,0,0,1-.412.412h-2.266a.364.364,0,0,1-.412-.412V1259Z" transform="translate(-867.045 -1250.575)"/>
      <path id="Path_5" data-name="Path 5" class="cls-12" d="M1016.479,1241.924c.082.357-.055.481-.275.563a9.988,9.988,0,0,1-3.351.481c-2.925,0-4.354-1.14-4.354-4.065v-14.284c0-.247.137-.412.44-.453l2.2-.467c.33-.083.467.164.467.412v4.381h4.12a.364.364,0,0,1,.412.412v1.483a.364.364,0,0,1-.412.412h-4.12v8.144c0,1.305.591,1.758,2.005,1.758a11.022,11.022,0,0,0,2.225-.3c.22-.055.357.027.412.275Z" transform="translate(-939.767 -1222.35)"/>
      <path id="Path_6" data-name="Path 6" class="cls-12" d="M1157.677,1234.7a18.106,18.106,0,0,1-4.793-.618c-1.4-.44-1.484-1.167-1.484-2.253v-16.907a.438.438,0,0,1,.412-.481l2.225-.439c.33-.082.467.165.467.412v4.491l-.013,1.51a15.229,15.229,0,0,1,3.941-.618c4.354,0,5.823,2.115,5.823,7.334C1164.214,1232.334,1162.9,1234.7,1157.677,1234.7Zm.124-12.663a18.162,18.162,0,0,0-3.324.508v9.587a10.806,10.806,0,0,0,3.008.385c2.705,0,3.6-1.14,3.6-5.3C1161.083,1223.077,1160.41,1222.033,1157.8,1222.033Z" transform="translate(-1063.041 -1213.983)"/>
      <path id="Path_7" data-name="Path 7" class="cls-12" d="M1286.607,1264.042a4.541,4.541,0,0,1-.028.646.478.478,0,0,1-.453.508H1276.7a3.465,3.465,0,0,0,1,2.706,4.781,4.781,0,0,0,3.488.975,13.82,13.82,0,0,0,3.873-.645.4.4,0,0,1,.192-.028c.192,0,.275,0,.357.3l.275,1.222a.485.485,0,0,1,.027.165.43.43,0,0,1-.3.385,13.532,13.532,0,0,1-4.82.838c-5.3,0-7.2-2.252-7.2-7.417,0-4.876,1.222-7.5,6.551-7.5,2.788,0,4.409.755,5.384,2.17a8.828,8.828,0,0,1,1.085,5.027v.646Zm-3.118-.975a9.722,9.722,0,0,0-.247-2.568c-.412-1.621-1.277-2.115-3.118-2.115-1.977,0-2.843.536-3.2,2.06a11.786,11.786,0,0,0-.247,2.623Z" transform="translate(-1168.458 -1250.402)"/>
      <path id="Path_8" data-name="Path 8" class="cls-12" d="M1410.207,1264.042a4.561,4.561,0,0,1-.027.646.478.478,0,0,1-.453.508H1400.3a3.464,3.464,0,0,0,1,2.706,4.783,4.783,0,0,0,3.489.975,13.82,13.82,0,0,0,3.873-.645.4.4,0,0,1,.192-.028c.193,0,.275,0,.357.3l.274,1.222a.485.485,0,0,1,.027.165.43.43,0,0,1-.3.385,13.537,13.537,0,0,1-4.821.838c-5.3,0-7.2-2.252-7.2-7.417,0-4.876,1.223-7.5,6.552-7.5,2.788,0,4.408.755,5.384,2.17a8.829,8.829,0,0,1,1.085,5.027v.646Zm-3.118-.975a9.722,9.722,0,0,0-.247-2.568c-.412-1.621-1.277-2.115-3.118-2.115-1.977,0-2.843.536-3.2,2.06a11.837,11.837,0,0,0-.247,2.623Z" transform="translate(-1275.082 -1250.402)"/>
    </g>
  </g>
</svg>
