<svg xmlns="http://www.w3.org/2000/svg" xmlns:xlink="http://www.w3.org/1999/xlink" width="132" height="199" viewBox="0 0 132 199">
  <defs>
    <style>
      .cls-1 {
        fill: none;
      }

      .cls-2 {
        fill: url(#radial-gradient);
      }

      .cls-3 {
        mix-blend-mode: multiply;
        isolation: isolate;
        fill: url(#radial-gradient-2);
      }

      .cls-4 {
        fill: #1a1818;
      }

      .cls-5 {
        fill: url(#linear-gradient);
      }

      .cls-6 {
        fill: url(#radial-gradient-3);
      }

      .cls-7 {
        fill: url(#radial-gradient-4);
      }

      .cls-8 {
        fill: url(#radial-gradient-5);
      }

      .cls-16, .cls-17, .cls-9 {
        fill: #fff;
      }

      .cls-10 {
        fill: #2d1a10;
      }

      .cls-11 {
        fill: #623a1d;
      }

      .cls-12 {
        clip-path: url(#clip-path);
      }

      .cls-13 {
        fill: url(#linear-gradient-2);
      }

      .cls-14 {
        fill: url(#linear-gradient-3);
      }

      .cls-15 {
        fill: url(#linear-gradient-4);
      }

      .cls-16 {
        opacity: 0.3;
      }

      .cls-17 {
        opacity: 0.4;
      }
    </style>
    <radialGradient id="radial-gradient" cx="0.681" cy="0.069" r="1.177" gradientTransform="matrix(1.056, -0.173, 0.186, 0.985, 0.112, 0.207)" gradientUnits="objectBoundingBox">
      <stop offset="0" stop-color="#ace1fa"/>
      <stop offset="0" stop-color="#a5def9"/>
      <stop offset="0" stop-color="#92d9f9"/>
    </radialGradient>
    <radialGradient id="radial-gradient-2" cx="0.944" cy="0.672" r="1.379" gradientTransform="matrix(0.795, 0.093, -0.074, 0.996, 0.269, -0.063)" xlink:href="#radial-gradient"/>
    <linearGradient id="linear-gradient" x1="0.332" y1="0.435" x2="0.648" y2="0.642" gradientUnits="objectBoundingBox">
      <stop offset="0"/>
      <stop offset="0.209" stop-color="#130b06"/>
      <stop offset="0.48" stop-color="#26160d"/>
      <stop offset="0.669" stop-color="#2d1a10"/>
      <stop offset="0.767" stop-color="#28170e"/>
      <stop offset="0.867" stop-color="#1c100a"/>
      <stop offset="0.967" stop-color="#080402"/>
      <stop offset="1"/>
    </linearGradient>
    <radialGradient id="radial-gradient-3" cx="0.76" cy="0.625" r="0.662" gradientTransform="translate(-0.006) scale(1.011 1)" gradientUnits="objectBoundingBox">
      <stop offset="0.288" stop-color="#ffbe00"/>
      <stop offset="0.421" stop-color="#feb701"/>
      <stop offset="0.611" stop-color="#fba404"/>
      <stop offset="0.835" stop-color="#f6850a"/>
      <stop offset="1" stop-color="#f36a10"/>
    </radialGradient>
    <radialGradient id="radial-gradient-4" cx="0.726" cy="0.453" r="1.006" gradientTransform="translate(0.155) scale(0.69 1)" gradientUnits="objectBoundingBox">
      <stop offset="0" stop-color="#794a2c"/>
      <stop offset="0.178" stop-color="#653d24"/>
      <stop offset="0.515" stop-color="#462a19"/>
      <stop offset="0.801" stop-color="#331e12"/>
      <stop offset="1" stop-color="#2d1a10"/>
    </radialGradient>
    <radialGradient id="radial-gradient-5" cx="0.694" cy="0.328" r="0.795" gradientTransform="translate(0.038) scale(0.925 1)" gradientUnits="objectBoundingBox">
      <stop offset="0.288" stop-color="#ffbe00"/>
      <stop offset="0.404" stop-color="#fdb701"/>
      <stop offset="0.57" stop-color="#faa404"/>
      <stop offset="0.767" stop-color="#f6850a"/>
      <stop offset="0.985" stop-color="#ef5a12"/>
      <stop offset="1" stop-color="#ef5713"/>
    </radialGradient>
    <clipPath id="clip-path">
      <path id="Path_1873" data-name="Path 1873" class="cls-1" d="M294.615,186.63s-.523,4.7-11.491,11.493-20.774,27.245-3.134,41.267c20.373,16.193,74.177-10.97,38.132-55.894Z" transform="translate(-270.313 -183.496)"/>
    </clipPath>
    <linearGradient id="linear-gradient-2" x1="0.128" y1="0.202" x2="0.864" y2="0.672" xlink:href="#linear-gradient"/>
    <linearGradient id="linear-gradient-3" x1="0.168" y1="0.228" x2="0.904" y2="0.697" xlink:href="#linear-gradient"/>
    <linearGradient id="linear-gradient-4" x1="0.175" y1="0.235" x2="0.907" y2="0.696" xlink:href="#linear-gradient"/>
  </defs>
  <g id="Group_1654" data-name="Group 1654" transform="translate(-419.64 -32.019)">
    <rect id="Rectangle_1425" data-name="Rectangle 1425" class="cls-1" width="132" height="199" transform="translate(419.64 32.019)"/>
    <g id="Group_1687" data-name="Group 1687" transform="translate(194.938 -1.739)">
      <path id="Path_1848" data-name="Path 1848" class="cls-2" d="M366.313,167.363c-10.942,9.847-28.6,14.843-36.359,8.384s-6.041-24.733,1.668-37.278c9.472-15.42,27.312-20.956,38.423-11.7S379.767,155.252,366.313,167.363Z" transform="translate(-24.549 -21.767)"/>
      <path id="Path_1849" data-name="Path 1849" class="cls-3" d="M342.717,209.663c-9.218-6.525-15.937-18.893-12.414-25.789s17.484-8.7,28.17-5.048c13.138,4.483,20.869,15.613,15.823,25.487S354.047,217.681,342.717,209.663Z" transform="translate(-25.668 -35.584)"/>
      <path id="Path_1850" data-name="Path 1850" class="cls-4" d="M293.55,193.664c-.127.033-.2.047-.274.063l-.224.046-.421.077q-.413.073-.81.129c-.533.078-1.058.144-1.579.2-1.043.108-2.077.193-3.106.236a56.635,56.635,0,0,1-18.013-2.086,51.085,51.085,0,0,1-10.921-4.553,51.2,51.2,0,0,1-9.341-6.822,47.381,47.381,0,0,0,15.661,6.072,48.991,48.991,0,0,0,5.445.734,49.78,49.78,0,0,0,10.808-.363A48.362,48.362,0,0,0,286,186.365c.854-.214,1.692-.462,2.512-.723.409-.132.813-.271,1.2-.414.2-.072.388-.144.571-.218l.267-.111c.046-.018.084-.036.118-.052s.081-.037.068-.039Z" transform="translate(-5.343 -36.588)"/>
      <path id="Path_1851" data-name="Path 1851" class="cls-5" d="M277.259,258.272,259.5,287l30.3-26.118Z" transform="translate(-8.029 -56.112)"/>
      <path id="Path_1852" data-name="Path 1852" class="cls-6" d="M294.615,186.63s-.523,4.7-11.491,11.493-20.774,27.245-3.134,41.267c20.373,16.193,74.177-10.97,38.132-55.894Z" transform="translate(-10.76 -37.23)"/>
      <path id="Path_1853" data-name="Path 1853" class="cls-7" d="M325.374,175.629c.8,6.7-5.766,10.628-14.654,11.684s-16.737-1.168-17.53-7.865,5.765-12.982,14.651-14.036S324.578,168.93,325.374,175.629Z" transform="translate(-16.52 -32.625)"/>
      <path id="Path_1854" data-name="Path 1854" class="cls-8" d="M315.109,116.759c0,23.893-19.37,33.848-43.262,33.848s-40.124-9.955-40.124-33.848S247.955,73.5,271.847,73.5C301.587,73.5,315.109,92.869,315.109,116.759Z" transform="translate(-1.015 -9.453)"/>
      <path id="Path_1855" data-name="Path 1855" class="cls-9" d="M263.014,118.039c-.439,9.344-5.614,16.415-11.587,16.415s-11.148-7.07-11.587-16.415c-.475-10.112,4.7-18.943,11.587-18.943S263.49,107.927,263.014,118.039Z" transform="translate(-3.057 -15.917)"/>
      <g id="Group_1682" data-name="Group 1682" transform="translate(243.402 88.231)">
        <path id="Path_1856" data-name="Path 1856" class="cls-10" d="M262.86,116.878c0,6.088-3.169,11.022-7.077,11.022s-7.077-4.934-7.077-11.022,3.169-11.023,7.077-11.023S262.86,110.791,262.86,116.878Z" transform="translate(-248.706 -105.855)"/>
        <path id="Path_1857" data-name="Path 1857" class="cls-11" d="M256.306,121.673l-5.33,3.745s1.369,7.563,8.142,4.9l-.29-7.781Z" transform="translate(-249.279 -109.849)"/>
        <path id="Path_1858" data-name="Path 1858" class="cls-4" d="M261.891,118.614c0,3.249-1.693,5.886-3.779,5.886s-3.779-2.637-3.779-5.886,1.692-5.885,3.779-5.885S261.891,115.363,261.891,118.614Z" transform="translate(-250.127 -107.591)"/>
        <path id="Path_1859" data-name="Path 1859" class="cls-9" d="M262.24,112.882a2.871,2.871,0,1,1-2.871-2.871A2.871,2.871,0,0,1,262.24,112.882Z" transform="translate(-250.673 -106.904)"/>
        <path id="Path_1860" data-name="Path 1860" class="cls-9" d="M264.387,118.465a1.228,1.228,0,1,0-1.227,1.229A1.228,1.228,0,0,0,264.387,118.465Z" transform="translate(-252.046 -108.729)"/>
      </g>
      <path id="Path_1861" data-name="Path 1861" class="cls-9" d="M311.579,116.942c.456,9.343-4.021,16.876-9.968,17.447s-11.771-5.976-13.1-15.234c-1.438-10.022,2.866-19.3,9.727-19.962S311.09,106.83,311.579,116.942Z" transform="translate(-15.285 -15.932)"/>
      <g id="Group_1683" data-name="Group 1683" transform="translate(279.463 88.067)">
        <path id="Path_1862" data-name="Path 1862" class="cls-10" d="M311.117,115.953c.582,6.059-2.1,11.277-5.993,11.648s-7.514-4.236-8.1-10.3,2.1-11.275,5.993-11.648S310.536,109.894,311.117,115.953Z" transform="translate(-296.949 -105.636)"/>
        <path id="Path_1863" data-name="Path 1863" class="cls-11" d="M304.842,121.414l-4.949,4.237s2.086,7.4,8.571,4.1l-1.03-7.716Z" transform="translate(-297.692 -109.62)"/>
        <path id="Path_1864" data-name="Path 1864" class="cls-4" d="M310.162,117.883c.31,3.236-1.121,6.021-3.2,6.22s-4.013-2.264-4.323-5.5,1.121-6.022,3.2-6.222S309.853,114.648,310.162,117.883Z" transform="translate(-298.375 -107.337)"/>
        <path id="Path_1865" data-name="Path 1865" class="cls-9" d="M309.878,112.175a2.871,2.871,0,1,1-3.131-2.584A2.871,2.871,0,0,1,309.878,112.175Z" transform="translate(-298.767 -106.631)"/>
        <path id="Path_1866" data-name="Path 1866" class="cls-9" d="M312.5,117.582a1.229,1.229,0,1,0-1.1,1.34A1.228,1.228,0,0,0,312.5,117.582Z" transform="translate(-300.256 -108.372)"/>
      </g>
      <path id="Path_1867" data-name="Path 1867" class="cls-4" d="M263.34,152.4a41.256,41.256,0,0,0,26.12,1.045s-8.619,9.4-13.322,9.664S263.34,152.4,263.34,152.4Z" transform="translate(-8.999 -29.377)"/>
      <path id="Path_1868" data-name="Path 1868" class="cls-4" d="M284.042,70.1a38.06,38.06,0,0,0,.462-9.673,30.776,30.776,0,0,0-.719-4.6,23.267,23.267,0,0,0-1.39-4.259,15.889,15.889,0,0,0-2.332-3.632c-.472-.53-.873-1.089-1.313-1.625-.4-.566-.838-1.1-1.217-1.7-.2-.29-.423-.573-.626-.873l-.306-.456-.334-.44c-.222-.3-.44-.606-.653-.929-.237-.3-.469-.608-.7-.93-.444-.668-.97-1.277-1.449-2a26.256,26.256,0,0,1-1.516-2.256l.311-.632a11.546,11.546,0,0,1,1.437-.019,10.064,10.064,0,0,1,1.408.138,14.32,14.32,0,0,1,2.7.721c.437.167.875.34,1.3.534q.628.318,1.242.676c.206.117.409.241.612.364l.579.416c.382.285.767.57,1.134.879a13.382,13.382,0,0,1,3.4,4.615,33.453,33.453,0,0,1,1.68,5.433A26.8,26.8,0,0,1,288.02,60.6a31.383,31.383,0,0,1-3.323,9.758Z" transform="translate(-11.173)"/>
      <path id="Path_1869" data-name="Path 1869" class="cls-4" d="M255.247,73.4a38.029,38.029,0,0,0-4.56-8.541,30.834,30.834,0,0,0-2.976-3.583,23.229,23.229,0,0,0-3.377-2.943,15.829,15.829,0,0,0-3.863-1.923c-.677-.213-1.307-.487-1.96-.722-.631-.282-1.284-.516-1.918-.838-.324-.144-.656-.275-.985-.429l-.5-.235-.512-.206c-.343-.141-.688-.3-1.037-.463-.356-.133-.715-.282-1.079-.439-.724-.346-1.486-.6-2.268-.972a26.025,26.025,0,0,1-2.458-1.159l-.057-.7a11.358,11.358,0,0,1,1.224-.753,10.051,10.051,0,0,1,1.279-.6,14.4,14.4,0,0,1,2.692-.768c.46-.081.925-.157,1.393-.209q.7-.049,1.413-.056c.238-.005.474,0,.712,0l.709.061c.474.048.95.1,1.423.173a13.377,13.377,0,0,1,5.286,2.219,33.467,33.467,0,0,1,4.226,3.8,26.786,26.786,0,0,1,5.735,9.1,31.373,31.373,0,0,1,2.148,10.08Z" transform="translate(0 -2.976)"/>
      <g id="Group_1686" data-name="Group 1686" transform="translate(259.553 146.266)">
        <g id="Group_1685" data-name="Group 1685" class="cls-12" transform="translate(0)">
          <g id="Group_1684" data-name="Group 1684" transform="translate(-10.705 4.637)">
            <path id="Path_1870" data-name="Path 1870" class="cls-13" d="M306.884,211.522a51.777,51.777,0,0,1-17.623-3.012,47.5,47.5,0,0,1-19.785-13.21l6.933-5.6c.909,1.108,22.7,26.864,63.784,2.538l4.542,7.669C329.953,208.659,317.217,211.522,306.884,211.522Z" transform="translate(-259.396 -189.7)"/>
            <path id="Path_1871" data-name="Path 1871" class="cls-14" d="M298.55,233.972a51.759,51.759,0,0,1-17.626-3.015,47.531,47.531,0,0,1-19.784-13.207l6.933-5.6c.908,1.108,22.7,26.865,63.785,2.538l4.539,7.669C321.618,231.107,308.884,233.972,298.55,233.972Z" transform="translate(-257.291 -195.368)"/>
            <path id="Path_1872" data-name="Path 1872" class="cls-15" d="M293.594,257.923a51.968,51.968,0,0,1-17.709-3.029,47.79,47.79,0,0,1-19.894-13.285l7.329-5.892-3.663,2.947,3.649-2.962c.9,1.1,22.576,26.695,63.47,2.482l4.79,8.091C316.743,255.05,303.965,257.923,293.594,257.923Z" transform="translate(-255.991 -201.316)"/>
          </g>
        </g>
      </g>
      <path id="Path_1874" data-name="Path 1874" class="cls-4" d="M254.912,178.662a3.759,3.759,0,1,1-3.741-4.14A3.958,3.958,0,0,1,254.912,178.662Z" transform="translate(-4.982 -34.964)"/>
      <path id="Path_1875" data-name="Path 1875" class="cls-4" d="M245.309,171.139a2.508,2.508,0,0,1,1.274.269,3.146,3.146,0,0,1,.934.712,2.184,2.184,0,0,1,.519,1.007c.037.19.073.377.1.566s.051.375.082.558a7.546,7.546,0,0,1,.052,2.175,8.706,8.706,0,0,1-.191,1.043c-.084.339-.209.669-.322.99l-.244-.027c-.076-.335-.128-.659-.2-.976-.093-.316-.143-.628-.263-.925l-.144-.444-.18-.427a3.439,3.439,0,0,0-.179-.414c-.067-.135-.12-.272-.2-.4s-.154-.253-.241-.374l-.284-.341a2,2,0,0,1-.4-.734,5.926,5.926,0,0,1-.191-.9,8.1,8.1,0,0,1-.076-1.164Z" transform="translate(-4.407 -34.108)"/>
      <path id="Path_1876" data-name="Path 1876" class="cls-4" d="M325.481,177.543a13.209,13.209,0,0,1,2.9-2.665,17.173,17.173,0,0,1,3.429-1.837,15.783,15.783,0,0,1,3.893-1.026,9.318,9.318,0,0,1,4.352.385,7.7,7.7,0,0,1,3.822,2.849,10.154,10.154,0,0,1,1.543,4.07c.029.165.061.329.095.492l.066.461c.045.3.1.607.164.908l.092.453c.036.15.071.3.1.451.053.3.123.6.193.905l.46,1.813c.083.3.169.608.265.913l.242.921.256.928c.076.31.146.622.215.935s.141.627.2.943.106.629.146.945a27.543,27.543,0,0,1,.209,3.785c0,1.251-.013,2.51-.086,3.713-.019.306-.029.6-.052.892l-.068.856c-.017.271-.058.561-.065.784l-.034.357c0,.092,0,.158-.013.24l-.013.114a.106.106,0,0,0-.006-.05.107.107,0,0,0-.033-.046c-.016-.007-.018-.078-.038-.111a.457.457,0,0,0-.07-.115c-.03-.035-.02-.04-.04-.058s-.086-.052-.069-.038-.033.019-.01.049a.419.419,0,0,1,.053.1c.027.037.078.078.114.126l.059.073.09.065a5.522,5.522,0,0,0,2.168.947,13.785,13.785,0,0,0,3.09.286c.281,0,.565-.018.86-.016q.431-.04.883-.069c.149-.014.306-.013.458-.028l.457-.055c.309-.035.626-.064.956-.084l.309.53c-.2.262-.413.517-.634.766a7.44,7.44,0,0,1-.7.715c-.248.223-.5.444-.766.66-.272.2-.555.386-.842.58a11.048,11.048,0,0,1-3.979,1.564,9.08,9.08,0,0,1-4.846-.419l-.321-.122-.326-.161c-.217-.114-.433-.216-.647-.355s-.434-.307-.647-.469a5.908,5.908,0,0,1-.632-.6,4.779,4.779,0,0,1-.591-.768,3.6,3.6,0,0,1-.265-.448c-.082-.176-.158-.355-.227-.537a4.1,4.1,0,0,1-.176-.538c-.035-.162-.068-.327-.093-.492s-.049-.332-.067-.5l-.014-.336c-.009-.219-.015-.454-.01-.662l.026-.543c.023-.377.055-.685.1-1.011s.084-.631.133-.936.108-.608.161-.9c.22-1.184.471-2.314.69-3.458s.392-2.275.632-3.414l.386-1.718.2-.868.174-.873.161-.881c.046-.294.078-.587.109-.883s.051-.591.075-.888c0-.294.01-.589,0-.883a10.576,10.576,0,0,0-.161-1.754q-.067-.435-.162-.866c-.034-.141-.061-.29-.1-.424s-.089-.254-.138-.379a3.591,3.591,0,0,0-1.958-2.121,5.987,5.987,0,0,0-.623-.2c-.229-.028-.42-.078-.641-.085s-.413-.04-.644-.021l-.316-.01c-.113.009-.224.014-.333.012-.875.032-1.808.034-2.827.057s-2.091.125-3.205.212-2.263.209-3.459.29-2.427.161-3.751.124Z" transform="translate(-24.691 -34.306)"/>
      <path id="Path_1877" data-name="Path 1877" class="cls-16" d="M329.324,192.669a17.848,17.848,0,0,1,2.2,2.9,26.734,26.734,0,0,1,1.728,3.225,30.643,30.643,0,0,1,2.218,7.044c.1.613.227,1.225.293,1.846.042.31.069.621.1.932s.065.623.077.936c.025.626.091,1.254.076,1.883s-.01,1.259-.04,1.889a31.089,31.089,0,0,1-1.31,7.468l-.28.91c-.093.3-.216.6-.324.894-.235.588-.441,1.189-.7,1.765l-.821,1.71c-.13.289-.292.559-.445.835s-.311.548-.472.818l-.479.813c-.17.264-.35.521-.524.782-.349.52-.708,1.035-1.079,1.536a33.758,33.758,0,0,1-2.426,2.831c-.425.45-.863.886-1.3,1.318-.462.409-.917.82-1.388,1.214a33.149,33.149,0,0,1-2.912,2.213c-1,.688-2.069,1.277-3.115,1.868a36.047,36.047,0,0,1-3.311,1.476c.71-1,1.463-1.912,2.2-2.822.349-.478.711-.933,1.064-1.394s.732-.887,1.052-1.37l1.014-1.378c.163-.233.35-.443.5-.681l.474-.7c.311-.469.638-.922.958-1.375.3-.472.58-.951.884-1.41l.448-.692c.147-.232.271-.478.407-.716l.826-1.41c.253-.481.486-.971.746-1.443.126-.238.257-.474.378-.715l.331-.735a40.922,40.922,0,0,0,2.294-5.955,44.732,44.732,0,0,0,1.91-12.686,58.337,58.337,0,0,0-.283-6.688C330.091,197.332,329.763,195.047,329.324,192.669Z" transform="translate(-22.068 -39.546)"/>
      <path id="Path_1878" data-name="Path 1878" class="cls-17" d="M300.355,79.519a22,22,0,0,1,4.043.8,33.768,33.768,0,0,1,3.9,1.386,36,36,0,0,1,7.26,4.169,34.3,34.3,0,0,1,3.253,2.746c.517.493,1.022,1,1.508,1.529.467.544.964,1.065,1.4,1.638a32.109,32.109,0,0,1,4.489,7.433c.267.678.537,1.356.784,2.041.212.7.454,1.385.635,2.09.16.71.358,1.411.481,2.126l.19,1.071c.067.357.124.716.156,1.059.077.694.165,1.385.215,2.083.028.348.064.7.084,1.043l.039,1.049c.034.7.032,1.4.033,2.1s-.049,1.4-.081,2.1a35.863,35.863,0,0,1-1.476,8.242,25.162,25.162,0,0,1-3.626,7.431,61.465,61.465,0,0,0,.175-15.574q-.444-3.783-1.227-7.5c-.131-.624-.281-1.188-.415-1.784s-.337-1.159-.5-1.739-.388-1.138-.576-1.709c-.209-.563-.441-1.117-.659-1.676a41.36,41.36,0,0,0-8.133-12.114,63.324,63.324,0,0,0-5.6-5.234C304.713,82.663,302.607,81.071,300.355,79.519Z" transform="translate(-18.346 -10.974)"/>
      <path id="Path_1879" data-name="Path 1879" class="cls-16" d="M328.447,181.077a7,7,0,0,1-1.7,3.659,10.715,10.715,0,0,1-3.191,2.544l-.93.425a8.634,8.634,0,0,1-.959.338,10.7,10.7,0,0,1-1.973.428,6.407,6.407,0,0,1-1,.074c-.334.008-.668.005-1,0a10.833,10.833,0,0,1-1.98-.345,16.5,16.5,0,0,1,1.8-.8c.291-.13.579-.255.867-.369s.576-.216.852-.351.556-.244.836-.353.543-.252.814-.372c.551-.226,1.063-.514,1.6-.762a31.455,31.455,0,0,0,3.022-1.809A28.413,28.413,0,0,0,328.447,181.077Z" transform="translate(-22.223 -36.619)"/>
    </g>
  </g>
</svg>
