<svg xmlns="http://www.w3.org/2000/svg" xmlns:xlink="http://www.w3.org/1999/xlink" width="194" height="64" viewBox="0 0 194 64">
  <defs>
    <style>
      .cls-1 {
        fill: none;
      }

      .cls-2 {
        fill: #282828;
      }

      .cls-3 {
        fill: url(#linear-gradient);
      }

      .cls-4 {
        fill: url(#linear-gradient-2);
      }

      .cls-5 {
        fill: url(#linear-gradient-4);
      }

      .cls-6 {
        fill: url(#linear-gradient-6);
      }

      .cls-7 {
        fill: url(#linear-gradient-7);
      }

      .cls-8 {
        fill: url(#linear-gradient-11);
      }
    </style>
    <linearGradient id="linear-gradient" x1="-6.75" y1="-7.371" x2="-5.884" y2="-7.371" gradientUnits="objectBoundingBox">
      <stop offset="0" stop-color="#f74800"/>
      <stop offset="1" stop-color="#ffc800"/>
    </linearGradient>
    <linearGradient id="linear-gradient-2" x1="0" y1="0.5" x2="1" y2="0.5" xlink:href="#linear-gradient"/>
    <linearGradient id="linear-gradient-4" x1="-6.567" y1="-7.16" x2="-5.701" y2="-7.16" xlink:href="#linear-gradient"/>
    <linearGradient id="linear-gradient-6" x1="-7.067" y1="-7.737" x2="-6.201" y2="-7.737" xlink:href="#linear-gradient"/>
    <linearGradient id="linear-gradient-7" x1="-23.72" y1="-26.967" x2="-22.854" y2="-26.967" xlink:href="#linear-gradient"/>
    <linearGradient id="linear-gradient-11" x1="0.5" y1="1" x2="0.5" y2="0" xlink:href="#linear-gradient"/>
  </defs>
  <g id="logo" transform="translate(-176.89 -171.39)">
    <rect id="Rectangle_1471" data-name="Rectangle 1471" class="cls-1" width="194" height="64" transform="translate(176.89 171.39)"/>
    <g id="Group_1716" data-name="Group 1716" transform="translate(250.906 194.57)">
      <path id="Path_2009" data-name="Path 2009" class="cls-2" d="M153.42,270.211a13.417,13.417,0,0,1-4.3-.76c-.119-.071-.285-.166-.214-.333l.261-1.259c.047-.166.143-.26.261-.26a.473.473,0,0,1,.166.023,12.98,12.98,0,0,0,3.658.618c1.592,0,2.637-.5,2.637-1.758,0-1.616-1.141-1.52-2.756-1.853-1.686-.261-4.108-.713-4.108-3.705,0-3.254,2.9-3.8,4.988-3.8a14.454,14.454,0,0,1,3.847.523.3.3,0,0,1,.262.356l-.214,1.282c-.024.167-.143.238-.333.214a19.287,19.287,0,0,0-3.23-.4c-1.331,0-2.637.333-2.637,1.639,0,1.355,1.306,1.544,2.756,1.734,1.971.309,4.108.642,4.108,3.777C158.574,269.332,156.2,270.211,153.42,270.211Z" transform="translate(-148.89 -252.027)"/>
      <path id="Path_2010" data-name="Path 2010" class="cls-2" d="M182.761,269.546a.315.315,0,0,1-.356.356h-1.948c-.261,0-.38-.119-.38-.356v-8.527c0-1.5-.571-1.948-2-1.948a16.654,16.654,0,0,0-3.514.5v9.976a.315.315,0,0,1-.357.356h-1.972a.315.315,0,0,1-.356-.356v-8.527c0-1.5-.547-1.948-1.972-1.948a17.592,17.592,0,0,0-3.563.5v9.976a.315.315,0,0,1-.357.356h-1.971c-.262,0-.381-.119-.381-.356V259.451c0-.879.333-1.282,1.592-1.663a19.5,19.5,0,0,1,4.893-.665,4.938,4.938,0,0,1,3.206.855,16.821,16.821,0,0,1,5.036-.855c2.9,0,4.394.808,4.394,3.539Z" transform="translate(-150.486 -252.027)"/>
      <path id="Path_2011" data-name="Path 2011" class="cls-2" d="M199.924,267.409c0,1.734-.475,2.089-2.114,2.47a13.963,13.963,0,0,1-3.206.332c-2.376,0-5.63-.166-5.63-3.99,0-3.111,1.853-3.349,3.943-3.729l4.322-.713V260.9c0-.736-.047-1.234-.737-1.52a5.385,5.385,0,0,0-1.948-.237,17.274,17.274,0,0,0-4.157.665.547.547,0,0,1-.166.023.308.308,0,0,1-.285-.214l-.285-1.306c-.071-.262.1-.333.262-.4a18.265,18.265,0,0,1,5.106-.784,7.407,7.407,0,0,1,3.539.642c1.235.688,1.354,1.8,1.354,3.064Zm-6.294-3.16c-.975.19-1.9.285-1.9,1.924,0,2.019,1.686,2.185,2.946,2.185a7.676,7.676,0,0,0,2.565-.38v-4.323Z" transform="translate(-153.228 -252.027)"/>
      <path id="Path_2012" data-name="Path 2012" class="cls-2" d="M205.144,259.43c0-.974.428-1.258,1.449-1.615a15.884,15.884,0,0,1,4.679-.665c.285,0,.547.047.547.4v1.355c0,.189-.047.356-.333.356a13.835,13.835,0,0,0-3.634.38v9.9a.315.315,0,0,1-.357.356H205.5a.315.315,0,0,1-.357-.356Z" transform="translate(-154.978 -252.03)"/>
      <path id="Path_2013" data-name="Path 2013" class="cls-2" d="M223.528,268.739c.071.309-.047.428-.237.5a8.832,8.832,0,0,1-2.945.427c-2.565,0-3.824-1-3.824-3.562V253.561c0-.214.119-.356.38-.4l1.924-.4c.285-.07.4.143.4.357v3.848h3.611a.315.315,0,0,1,.356.356v1.306a.315.315,0,0,1-.356.357h-3.611v7.149c0,1.14.523,1.544,1.758,1.544a9.637,9.637,0,0,0,1.948-.261c.19-.047.309.024.357.238Z" transform="translate(-156.21 -251.552)"/>
      <path id="Path_2014" data-name="Path 2014" class="cls-2" d="M241.349,269.592a15.523,15.523,0,0,1-4.2-.546c-1.235-.38-1.306-1.022-1.306-1.972V252.23a.4.4,0,0,1,.357-.428l1.948-.38c.285-.071.4.143.4.356v3.943l-.014,1.33a13.324,13.324,0,0,1,3.458-.547c3.824,0,5.106,1.853,5.106,6.438S245.934,269.592,241.349,269.592Zm.119-11.116a15.106,15.106,0,0,0-2.921.451v8.408a9.612,9.612,0,0,0,2.636.333c2.376,0,3.16-1,3.16-4.655C244.342,259.4,243.748,258.476,241.468,258.476Z" transform="translate(-158.3 -251.408)"/>
      <path id="Path_2015" data-name="Path 2015" class="cls-2" d="M263.779,264.012a4.314,4.314,0,0,1-.023.57.426.426,0,0,1-.4.451h-8.266a3.044,3.044,0,0,0,.879,2.376,4.191,4.191,0,0,0,3.064.855,11.777,11.777,0,0,0,3.4-.571.357.357,0,0,1,.166-.023c.166,0,.237,0,.309.26l.238,1.069a.427.427,0,0,1,.023.143.371.371,0,0,1-.261.333,11.99,11.99,0,0,1-4.228.736c-4.655,0-6.318-1.971-6.318-6.507,0-4.276,1.069-6.58,5.748-6.58,2.446,0,3.871.665,4.726,1.9a7.73,7.73,0,0,1,.95,4.417Zm-2.731-.855a8.684,8.684,0,0,0-.214-2.257c-.357-1.425-1.117-1.852-2.732-1.852-1.734,0-2.494.475-2.8,1.8a10.563,10.563,0,0,0-.214,2.3Z" transform="translate(-160.088 -252.027)"/>
      <path id="Path_2016" data-name="Path 2016" class="cls-2" d="M280.483,264.012a4.145,4.145,0,0,1-.024.57.426.426,0,0,1-.4.451h-8.266a3.044,3.044,0,0,0,.879,2.376,4.191,4.191,0,0,0,3.064.855,11.777,11.777,0,0,0,3.4-.571.357.357,0,0,1,.166-.023c.166,0,.237,0,.309.26l.238,1.069a.413.413,0,0,1,.024.143.372.372,0,0,1-.262.333,11.99,11.99,0,0,1-4.228.736c-4.655,0-6.318-1.971-6.318-6.507,0-4.276,1.069-6.58,5.748-6.58,2.446,0,3.871.665,4.726,1.9a7.73,7.73,0,0,1,.951,4.417Zm-2.731-.855a8.683,8.683,0,0,0-.214-2.257c-.357-1.425-1.116-1.852-2.731-1.852-1.734,0-2.494.475-2.8,1.8a10.562,10.562,0,0,0-.214,2.3Z" transform="translate(-161.896 -252.027)"/>
    </g>
    <g id="Group_1717" data-name="Group 1717" transform="translate(179.004 172.966)">
      <path id="Path_2017" data-name="Path 2017" class="cls-3" d="M187.313,204.469h16.1l8.052,13.947-8.052,13.947h-16.1l-8.052-13.947Z" transform="translate(-179.261 -176.569)"/>
      <path id="Path_2018" data-name="Path 2018" class="cls-4" d="M195.362,218.419l-8.044,13.946-8.055-13.946,8.055-13.946Z" transform="translate(-179.261 -176.569)"/>
      <path id="Path_2019" data-name="Path 2019" class="cls-4" d="M248.568,187.14h-16.11l-8.044-13.958h16.1Z" transform="translate(-184.148 -173.183)"/>
      <path id="Path_2020" data-name="Path 2020" class="cls-5" d="M196.343,188.829h16.1l8.052,13.947-8.052,13.947h-16.1l-8.052-13.947Z" transform="translate(-180.238 -174.876)"/>
      <path id="Path_2021" data-name="Path 2021" class="cls-4" d="M204.395,202.78l-8.055,13.946L188.3,202.78l8.044-13.946Z" transform="translate(-180.238 -174.877)"/>
      <path id="Path_2022" data-name="Path 2022" class="cls-6" d="M214.4,188.829h16.1l8.052,13.947-8.052,13.947H214.4l-8.052-13.947Z" transform="translate(-182.192 -174.876)"/>
      <path id="Path_2023" data-name="Path 2023" class="cls-7" d="M221.634,230.489h5.428l2.714,4.7-2.714,4.7h-5.428l-2.714-4.7Z" transform="translate(-183.553 -179.385)"/>
      <path id="Path_2024" data-name="Path 2024" class="cls-4" d="M195.362,188.834l-8.044,13.946-8.055,13.946,8.055,13.946,8.044-13.946,8.055-13.946Z" transform="translate(-179.261 -174.877)"/>
      <path id="Path_2025" data-name="Path 2025" class="cls-4" d="M248.568,187.14h-16.11l-8.044-13.958h16.1Z" transform="translate(-184.148 -173.183)"/>
      <path id="Path_2026" data-name="Path 2026" class="cls-4" d="M248.568,187.14h-16.11l-8.044-13.958h16.1Z" transform="translate(-184.148 -173.183)"/>
      <path id="Path_2027" data-name="Path 2027" class="cls-8" d="M248.568,188.834l-8.055,13.946h-16.1v-.012l8.044-13.934Z" transform="translate(-184.148 -174.877)"/>
      <path id="Path_2028" data-name="Path 2028" class="cls-8" d="M231.48,187.14l-8.044,13.934-8.055-13.934,8.055-13.958Z" transform="translate(-183.17 -173.183)"/>
    </g>
  </g>
</svg>
