<svg xmlns="http://www.w3.org/2000/svg" width="80" height="80" viewBox="0 0 80 80">
  <g id="power_1_" data-name="power (1)" transform="translate(-29.405 6)">
    <g id="Group_11" data-name="Group 11" transform="translate(24.405)">
      <path id="Path_4" data-name="Path 4" d="M24.564,47.439a35.963,35.963,0,0,1,13.195-31.4,5.328,5.328,0,0,1,8.72,4.083h0a5.406,5.406,0,0,1-2.058,4.2A25.392,25.392,0,1,0,76.413,24.3a5.382,5.382,0,0,1-2.041-4.181h0a5.313,5.313,0,0,1,8.606-4.181,36.007,36.007,0,1,1-58.413,31.5ZM60.409,0A5.307,5.307,0,0,0,55.1,5.307V29.754a5.307,5.307,0,1,0,10.615,0V5.307A5.307,5.307,0,0,0,60.409,0Z" transform="translate(-15.405 -6)" fill="#9f9f9f"/>
      <rect id="Rectangle_1" data-name="Rectangle 1" width="80" height="80" transform="translate(5 -6)" fill="none"/>
    </g>
  </g>
</svg>
