<svg xmlns="http://www.w3.org/2000/svg" width="20" height="20" viewBox="0 0 20 20">
  <g id="avgroup" transform="translate(-1)">
    <rect id="Rectangle_1" data-name="Rectangle 1" width="20" height="20" transform="translate(1)" fill="none"/>
    <path id="megaphone_1_" data-name="megaphone (1)" d="M15.425,54.991V51.535a.57.57,0,0,0-.745-.559L5.129,54.3H3.184A3.256,3.256,0,0,0,0,57.616a3.3,3.3,0,0,0,2.412,3.219l.962,4.645a.572.572,0,0,0,.553.465H6.251a.584.584,0,0,0,.553-.714l-.829-4c9.324,3.245,8.749,3.06,8.885,3.06a.578.578,0,0,0,.566-.59V60.241a2.625,2.625,0,0,0,0-5.25ZM1.132,57.616a2.1,2.1,0,0,1,2.052-2.138H4.646v4.273H3.074a2.1,2.1,0,0,1-1.942-2.135Zm3.252,7.149-.794-3.832H4.756l.794,3.832Zm9.909-1.886L5.778,59.916v-4.6l8.516-2.963Zm1.132-3.817V56.17a1.446,1.446,0,0,1,0,2.891Z" transform="translate(2.5 -48.445)" fill="#f04b23" stroke="#f04b23" stroke-width="0.6"/>
  </g>
</svg>
