<?xml version="1.0" encoding="utf-8"?>
<!-- Generator: Adobe Illustrator 16.0.0, SVG Export Plug-In . SVG Version: 6.00 Build 0)  -->
<!DOCTYPE svg PUBLIC "-//W3C//DTD SVG 1.1//EN" "http://www.w3.org/Graphics/SVG/1.1/DTD/svg11.dtd">
<svg version="1.1" id="Layer_1" xmlns="http://www.w3.org/2000/svg" xmlns:xlink="http://www.w3.org/1999/xlink" x="0px" y="0px"
	 width="260px" height="260px" viewBox="0 0 260 260" enable-background="new 0 0 260 260" xml:space="preserve">
<path fill-rule="evenodd" clip-rule="evenodd" fill="#282828" stroke="#282828" stroke-width="0.5" stroke-miterlimit="2.6131" d="
	M141.765,70.633c64.56,5.937,115.12,60.228,115.12,126.337c0,8.911-0.923,17.606-2.671,26h-23.929
	c2.146-8.305,3.29-17.014,3.29-25.989c0-53.213-40.146-97.045-91.811-102.902v90.623l-22.221,11.52V93.925
	c-52.33,5.224-93.193,49.369-93.193,103.056c0,8.976,1.144,17.685,3.29,25.989H5.787c-1.748-8.394-2.671-17.089-2.671-26
	c0-66.555,51.244-121.136,116.428-126.454V48.711l22.221-11.52V70.633z"/>
</svg>
