<svg id="rocket-line" xmlns="http://www.w3.org/2000/svg" width="20" height="20" viewBox="0 0 20 20">
  <path id="Path_11" data-name="Path 11" d="M0,0H20V20H0Z" fill="none"/>
  <path id="Path_12" data-name="Path 12" d="M4.687,11.136A10.024,10.024,0,0,1,10.52,1.818a10.024,10.024,0,0,1,5.833,9.318,10.981,10.981,0,0,1-.183,2l1.617,1.527a.417.417,0,0,1,.079.5l-2.079,3.813a.417.417,0,0,1-.661.1l-1.862-1.862a.833.833,0,0,0-.589-.244H8.366a.833.833,0,0,0-.589.244L5.915,19.076a.417.417,0,0,1-.661-.1L3.175,15.168a.417.417,0,0,1,.079-.5l1.617-1.527a11.055,11.055,0,0,1-.184-2Zm1.23,5.58.681-.681A2.5,2.5,0,0,1,8.366,15.3h4.31a2.5,2.5,0,0,1,1.767.732l.681.681.818-1.5-.917-.867a1.667,1.667,0,0,1-.494-1.517,9.239,9.239,0,0,0,.156-1.7A8.472,8.472,0,0,0,10.521,3.67a8.472,8.472,0,0,0-4.167,7.467,9.255,9.255,0,0,0,.156,1.7,1.667,1.667,0,0,1-.494,1.517L5.1,15.22Zm4.6-5.58a1.667,1.667,0,1,1,1.67-1.666,1.667,1.667,0,0,1-1.67,1.666Z" transform="translate(-0.521 -0.303)" fill="#f04b23"/>
</svg>
