<svg xmlns="http://www.w3.org/2000/svg" width="80" height="80" viewBox="0 0 80 80">
  <g id="Group_3" data-name="Group 3" transform="translate(-556 -494)">
    <rect id="Rectangle_1" data-name="Rectangle 1" width="80" height="80" transform="translate(556 494)" fill="none"/>
    <g id="trash_1_" data-name="trash (1)" transform="translate(516 494)">
      <g id="Group_12" data-name="Group 12" transform="translate(48)">
        <path id="Path_9" data-name="Path 9" d="M106.337,9.93H92.683V7.447A7.447,7.447,0,0,0,85.236,0h-9.93a7.447,7.447,0,0,0-7.447,7.447V9.93H54.206A6.206,6.206,0,0,0,48,16.136V21.1a2.482,2.482,0,0,0,2.482,2.482H110.06a2.482,2.482,0,0,0,2.482-2.482V16.136A6.206,6.206,0,0,0,106.337,9.93ZM72.824,7.447a2.486,2.486,0,0,1,2.482-2.482h9.93a2.486,2.486,0,0,1,2.482,2.482V9.93H72.824Z" transform="translate(-48 0)" fill="#9f9f9f"/>
        <path id="Path_10" data-name="Path 10" d="M74.14,184a.776.776,0,0,0-.775.813L75.413,227.8a7.438,7.438,0,0,0,7.438,7.094h37.7a7.438,7.438,0,0,0,7.438-7.094l2.048-42.983a.776.776,0,0,0-.775-.813Zm37.49,6.206a2.482,2.482,0,1,1,4.965,0v32.271a2.482,2.482,0,1,1-4.965,0Zm-12.412,0a2.482,2.482,0,1,1,4.965,0v32.271a2.482,2.482,0,1,1-4.965,0Zm-12.412,0a2.482,2.482,0,1,1,4.965,0v32.271a2.482,2.482,0,1,1-4.965,0Z" transform="translate(-69.429 -155.452)" fill="#9f9f9f"/>
      </g>
    </g>
  </g>
</svg>
