<svg xmlns="http://www.w3.org/2000/svg" width="20" height="20" viewBox="0 0 20 20">
    <path fill="none" d="M0 0h20v20H0z"/>
    <path fill="#565656" d="M10.333 2A8.333 8.333 0 1 1 2 10.333 8.333 8.333 0 0 1 10.333 2zm0 12.5a4.156 4.156 0 0 1-1.523-.287l-1.863 1.864a6.673 6.673 0 0 0 6.773 0l-1.863-1.864a4.156 4.156 0 0 1-1.524.287zm-6.666-4.167a6.633 6.633 0 0 0 .923 3.387l1.864-1.863a4.179 4.179 0 0 1 0-3.047L4.59 6.947a6.636 6.636 0 0 0-.923 3.387zm12.41-3.387L14.212 8.81a4.179 4.179 0 0 1 0 3.047l1.864 1.863a6.673 6.673 0 0 0 0-6.773zm-5.743.887a2.5 2.5 0 1 0 2.5 2.5 2.5 2.5 0 0 0-2.501-2.5zm0-4.167a6.636 6.636 0 0 0-3.387.923L8.81 6.454a4.179 4.179 0 0 1 3.047 0L13.72 4.59a6.636 6.636 0 0 0-3.387-.923z" transform="translate(-.333 -.333)"/>
</svg>
