<svg xmlns="http://www.w3.org/2000/svg" width="80" height="80" viewBox="0 0 80 80">
  <g id="history_1_" data-name="history (1)" transform="translate(-128 42)">
    <path id="Path_1" data-name="Path 1" d="M38.543,19.271V34.593L48.711,44.761a2.793,2.793,0,1,1-3.95,3.95L33.775,37.725a2.793,2.793,0,0,1-.818-1.975V19.271a2.793,2.793,0,0,1,5.586,0ZM46.736,0H24.764A24.678,24.678,0,0,0,8.525,6.072V2.793a2.793,2.793,0,0,0-5.586,0V13.779a2.8,2.8,0,0,0,2.793,2.793H16.718a2.793,2.793,0,1,0,0-5.586H11.435a19.244,19.244,0,0,1,13.329-5.4H46.736A19.2,19.2,0,0,1,65.914,24.764V46.736A19.2,19.2,0,0,1,46.736,65.914H24.764A19.2,19.2,0,0,1,5.586,46.736V35.75A2.793,2.793,0,0,0,0,35.75V46.736A24.792,24.792,0,0,0,24.764,71.5H46.736A24.792,24.792,0,0,0,71.5,46.736V24.764A24.792,24.792,0,0,0,46.736,0Z" transform="translate(132.5 -37.5)" fill="#9f9f9f" stroke="#9f9f9f" stroke-width="4"/>
    <rect id="Rectangle_1" data-name="Rectangle 1" width="80" height="80" transform="translate(128 -42)" fill="none"/>
  </g>
</svg>
