<svg id="info" xmlns="http://www.w3.org/2000/svg" width="80" height="80" viewBox="0 0 80 80">
  <g id="Group_8" data-name="Group 8" transform="translate(0 0)">
    <path id="Path_5" data-name="Path 5" d="M74.637,19.922A39.832,39.832,0,0,0,60.08,5.365,39.127,39.127,0,0,0,40,0,39.127,39.127,0,0,0,19.923,5.365,39.822,39.822,0,0,0,5.365,19.922,39.126,39.126,0,0,0,0,40,39.135,39.135,0,0,0,5.365,60.078,39.832,39.832,0,0,0,19.922,74.636,39.131,39.131,0,0,0,40,80a39.131,39.131,0,0,0,20.079-5.365A39.822,39.822,0,0,0,74.636,60.078,39.134,39.134,0,0,0,80,40,39.136,39.136,0,0,0,74.637,19.922ZM33.334,10A1.6,1.6,0,0,1,35,8.333H45A1.606,1.606,0,0,1,46.668,10v8.334A1.605,1.605,0,0,1,45,20H35a1.6,1.6,0,0,1-1.667-1.666Zm20,55a1.6,1.6,0,0,1-1.666,1.666H28.334A1.6,1.6,0,0,1,26.668,65V56.666A1.6,1.6,0,0,1,28.334,55h5V38.333h-5a1.6,1.6,0,0,1-1.666-1.666V28.334a1.6,1.6,0,0,1,1.666-1.666H45a1.605,1.605,0,0,1,1.666,1.666V55h5a1.6,1.6,0,0,1,1.667,1.666V65h0Z" transform="translate(0 0)" fill="#9f9f9f"/>
  </g>
</svg>
