<svg xmlns="http://www.w3.org/2000/svg" xmlns:xlink="http://www.w3.org/1999/xlink" width="168" height="40" viewBox="0 0 168 40">
    <defs>
        <linearGradient id="linear-gradient" x1="-6.75" x2="-5.884" y1="-7.371" y2="-7.371" gradientUnits="objectBoundingBox">
            <stop offset="0" stop-color="#f74800"/>
            <stop offset="1" stop-color="#ffc800"/>
        </linearGradient>
        <linearGradient id="linear-gradient-2" x1="0" x2="1" y1=".5" y2=".5" xlink:href="#linear-gradient"/>
        <linearGradient id="linear-gradient-4" x1="-6.567" x2="-5.701" y1="-7.16" y2="-7.16" xlink:href="#linear-gradient"/>
        <linearGradient id="linear-gradient-6" x1="-7.067" x2="-6.201" y1="-7.737" y2="-7.737" xlink:href="#linear-gradient"/>
        <linearGradient id="linear-gradient-7" x1="-23.72" x2="-22.854" y1="-26.967" y2="-26.967" xlink:href="#linear-gradient"/>
        <linearGradient id="linear-gradient-11" x1=".5" x2=".5" y1="1" y2="0" xlink:href="#linear-gradient"/>
        <style>
            .cls-2{fill:#282828}.cls-4{fill:url(#linear-gradient-2)}.cls-8{fill:url(#linear-gradient-11)}
        </style>
    </defs>
    <g id="logo" transform="translate(-176.89 -171.39)">
        <path id="Rectangle_1471" fill="none" d="M0 0H168V40H0z" transform="translate(176.89 171.39)"/>
        <g id="Group_1716" transform="translate(224.013 182.51)">
            <path id="Path_2009" d="M153.436 270.255a13.463 13.463 0 0 1-4.314-.762c-.119-.072-.286-.166-.215-.334l.262-1.264c.047-.166.143-.261.262-.261a.475.475 0 0 1 .166.023 13.024 13.024 0 0 0 3.67.62c1.6 0 2.646-.5 2.646-1.764 0-1.621-1.145-1.526-2.765-1.859-1.692-.262-4.122-.715-4.122-3.718 0-3.265 2.907-3.814 5-3.814a14.507 14.507 0 0 1 3.86.525.3.3 0 0 1 .263.357l-.215 1.287c-.024.167-.143.239-.334.215a19.347 19.347 0 0 0-3.241-.405c-1.335 0-2.646.334-2.646 1.645 0 1.359 1.311 1.549 2.765 1.739 1.978.311 4.122.644 4.122 3.79.007 3.099-2.376 3.98-5.164 3.98z" class="cls-2" transform="translate(-148.89 -252.009)"/>
            <path id="Path_2010" d="M182.826 269.589a.316.316 0 0 1-.357.357h-1.954c-.262 0-.381-.119-.381-.357v-8.556c0-1.5-.573-1.954-2-1.954a16.714 16.714 0 0 0-3.526.5v10.01a.316.316 0 0 1-.358.357h-1.978a.316.316 0 0 1-.357-.357v-8.556c0-1.5-.548-1.954-1.978-1.954a17.655 17.655 0 0 0-3.575.5v10.01a.316.316 0 0 1-.358.357h-1.978c-.263 0-.382-.119-.382-.357v-10.13c0-.882.334-1.287 1.6-1.669a19.565 19.565 0 0 1 4.91-.667 4.955 4.955 0 0 1 3.217.858 16.878 16.878 0 0 1 5.053-.858c2.907 0 4.409.811 4.409 3.552z" class="cls-2" transform="translate(-150.441 -252.009)"/>
            <path id="Path_2011" d="M199.961 267.444c0 1.739-.477 2.1-2.122 2.479a14.009 14.009 0 0 1-3.217.333c-2.384 0-5.649-.166-5.649-4 0-3.122 1.859-3.361 3.957-3.742l4.337-.715v-.882c0-.738-.047-1.238-.739-1.525a5.406 5.406 0 0 0-1.954-.238 17.332 17.332 0 0 0-4.171.667.55.55 0 0 1-.166.023.309.309 0 0 1-.286-.215l-.286-1.31c-.072-.263.1-.335.263-.406a18.323 18.323 0 0 1 5.124-.787 7.432 7.432 0 0 1 3.551.644c1.239.691 1.358 1.811 1.358 3.074zm-6.316-3.17c-.978.191-1.907.286-1.907 1.931 0 2.026 1.692 2.192 2.956 2.192a7.7 7.7 0 0 0 2.573-.381v-4.338z" class="cls-2" transform="translate(-153.106 -252.009)"/>
            <path id="Path_2012" d="M205.144 259.438c0-.977.43-1.263 1.454-1.621a15.941 15.941 0 0 1 4.7-.668c.286 0 .548.048.548.405v1.359c0 .19-.047.357-.334.357a13.883 13.883 0 0 0-3.646.381v9.939a.316.316 0 0 1-.358.357h-2a.316.316 0 0 1-.358-.357z" class="cls-2" transform="translate(-154.807 -252.012)"/>
            <path id="Path_2013" d="M223.551 268.794c.072.31-.047.43-.238.5a8.862 8.862 0 0 1-2.955.429c-2.573 0-3.837-1-3.837-3.574v-12.585c0-.215.119-.357.381-.405l1.93-.405c.286-.071.405.143.405.358v3.861h3.623a.316.316 0 0 1 .357.357v1.311a.316.316 0 0 1-.357.358h-3.623v7.174c0 1.144.524 1.549 1.764 1.549a9.672 9.672 0 0 0 1.954-.262c.191-.047.31.024.358.239z" class="cls-2" transform="translate(-156.004 -251.548)"/>
            <path id="Path_2014" d="M241.368 269.654a15.573 15.573 0 0 1-4.219-.548c-1.239-.381-1.311-1.025-1.311-1.978v-14.895a.4.4 0 0 1 .358-.43l1.954-.381c.286-.072.405.143.405.357v3.957l-.014 1.334a13.372 13.372 0 0 1 3.47-.548c3.837 0 5.124 1.859 5.124 6.46s-1.167 6.672-5.767 6.672zm.119-11.154a15.159 15.159 0 0 0-2.931.453v8.437a9.643 9.643 0 0 0 2.645.334c2.384 0 3.17-1 3.17-4.671 0-3.623-.596-4.553-2.884-4.553z" class="cls-2" transform="translate(-158.036 -251.408)"/>
            <path id="Path_2015" d="M263.818 264.035a4.33 4.33 0 0 1-.023.572.427.427 0 0 1-.405.453h-8.29a3.054 3.054 0 0 0 .882 2.384 4.205 4.205 0 0 0 3.075.858 11.816 11.816 0 0 0 3.408-.573.358.358 0 0 1 .166-.023c.166 0 .238 0 .31.261l.239 1.073a.428.428 0 0 1 .023.143.373.373 0 0 1-.262.334 12.03 12.03 0 0 1-4.242.738c-4.671 0-6.34-1.978-6.34-6.529 0-4.291 1.073-6.6 5.768-6.6 2.454 0 3.884.667 4.742 1.908a7.757 7.757 0 0 1 .953 4.432zm-2.74-.858a8.716 8.716 0 0 0-.215-2.265c-.358-1.43-1.12-1.859-2.741-1.859-1.74 0-2.5.477-2.812 1.811a10.6 10.6 0 0 0-.215 2.312z" class="cls-2" transform="translate(-159.774 -252.009)"/>
            <path id="Path_2016" d="M280.522 264.035a4.146 4.146 0 0 1-.024.572.427.427 0 0 1-.405.453H271.8a3.054 3.054 0 0 0 .882 2.384 4.205 4.205 0 0 0 3.075.858 11.817 11.817 0 0 0 3.408-.573.358.358 0 0 1 .166-.023c.167 0 .238 0 .31.261l.239 1.073a.415.415 0 0 1 .024.143.373.373 0 0 1-.263.334 12.03 12.03 0 0 1-4.242.738c-4.671 0-6.34-1.978-6.34-6.529 0-4.291 1.073-6.6 5.768-6.6 2.454 0 3.884.667 4.742 1.908a7.756 7.756 0 0 1 .954 4.432zm-2.741-.858a8.716 8.716 0 0 0-.215-2.265c-.358-1.43-1.12-1.859-2.741-1.859-1.74 0-2.5.477-2.812 1.811a10.6 10.6 0 0 0-.215 2.312z" class="cls-2" transform="translate(-161.531 -252.009)"/>
        </g>
        <g id="Group_1717" transform="translate(178.216 172.379)">
            <path id="Path_2017" fill="url(#linear-gradient)" d="M184.311 204.469h10.1l5.051 8.748-5.051 8.748h-10.1l-5.051-8.748z" transform="translate(-179.261 -186.969)"/>
            <path id="Path_2018" d="M189.361 213.221l-5.045 8.748-5.053-8.748 5.053-8.748z" class="cls-4" transform="translate(-179.262 -186.971)"/>
            <path id="Path_2019" d="M239.565 181.938H229.46l-5.045-8.755h10.1z" class="cls-4" transform="translate(-199.157 -173.183)"/>
            <path id="Path_2020" fill="url(#linear-gradient-4)" d="M193.341 188.829h10.1l5.051 8.748-5.051 8.748h-10.1l-5.051-8.748z" transform="translate(-183.239 -180.077)"/>
            <path id="Path_2021" d="M198.394 197.582l-5.053 8.748-5.045-8.748 5.045-8.748z" class="cls-4" transform="translate(-183.242 -180.08)"/>
            <path id="Path_2022" fill="url(#linear-gradient-6)" d="M211.4 188.829h10.1l5.051 8.748-5.051 8.748h-10.1l-5.051-8.748z" transform="translate(-191.197 -180.077)"/>
            <path id="Path_2023" fill="url(#linear-gradient-7)" d="M220.622 230.489h3.4l1.7 2.948-1.7 2.948h-3.4l-1.7-2.948z" transform="translate(-196.736 -198.434)"/>
            <path id="Path_2024" d="M189.361 188.834l-5.045 8.748-5.053 8.748 5.053 8.748 5.045-8.748 5.053-8.748z" class="cls-4" transform="translate(-179.262 -180.08)"/>
            <path id="Path_2025" d="M239.565 181.938H229.46l-5.045-8.755h10.1z" class="cls-4" transform="translate(-199.157 -173.183)"/>
            <path id="Path_2026" d="M239.565 181.938H229.46l-5.045-8.755h10.1z" class="cls-4" transform="translate(-199.157 -173.183)"/>
            <path id="Path_2027" d="M239.565 188.834l-5.053 8.748h-10.1v-.007l5.045-8.74z" class="cls-8" transform="translate(-199.157 -180.08)"/>
            <path id="Path_2028" d="M225.479 181.938l-5.045 8.74-5.053-8.74 5.053-8.755z" class="cls-8" transform="translate(-195.177 -173.183)"/>
        </g>
    </g>
</svg>
