<svg id="coins-fill" xmlns="http://www.w3.org/2000/svg" width="24" height="24" viewBox="0 0 24 24">
  <path id="Path_7" data-name="Path 7" d="M0,0H24V24H0Z" fill="none"/>
  <path id="Path_8" data-name="Path 8" d="M14,2a8,8,0,0,1,3.292,15.293A8,8,0,1,1,6.706,6.707,8,8,0,0,1,14,2ZM11,9H9v1a2.5,2.5,0,0,0-.164,4.995L9,15h2l.09.008a.5.5,0,0,1,0,.984L11,16H7v2H9v1h2V18a2.5,2.5,0,0,0,.164-4.995L11,13H9l-.09-.008a.5.5,0,0,1,0-.984L9,12h4V10H11Zm3-5A5.985,5.985,0,0,0,9.516,6.013a8,8,0,0,1,8.47,8.471A6,6,0,0,0,14,4Z" fill="#282828"/>
</svg>
