<svg id="money-b" xmlns="http://www.w3.org/2000/svg" width="24" height="24" viewBox="0 0 24 24">
  <path id="Path_5" data-name="Path 5" d="M0,0H24V24H0Z" fill="none"/>
  <path id="Path_6" data-name="Path 6" d="M12.083,22.167A10.083,10.083,0,1,1,22.166,12.084,10.083,10.083,0,0,1,12.083,22.167ZM8.554,14.1v2.017h2.525v2.017H13.1V16.117h1a2.525,2.525,0,1,0,0-5.042H10.067a.5.5,0,0,1,0-1.008h5.546V8.05H13.088V6.033H11.075V8.05H10.067a2.525,2.525,0,0,0,0,5.042H14.1a.5.5,0,1,1,0,1.008Z" transform="translate(-0.083 -0.083)" fill="#282828"/>
</svg>
