<svg xmlns="http://www.w3.org/2000/svg" width="80" height="80" viewBox="0 0 80 80">
  <g id="statistics_1_" data-name="statistics (1)" transform="translate(31 -0.05)">
    <g id="Group_7" data-name="Group 7" transform="translate(-28 3)">
      <g id="Group_2" data-name="Group 2" transform="translate(0 29.114)">
        <g id="Group_1" data-name="Group 1">
          <path id="Path_2" data-name="Path 2" d="M18.5,187.75H2.648A2.657,2.657,0,0,0,0,190.4v39.64a2.647,2.647,0,0,0,2.648,2.648H18.5a2.647,2.647,0,0,0,2.648-2.648V190.4A2.647,2.647,0,0,0,18.5,187.75Z" transform="translate(0 -187.75)" fill="#9f9f9f"/>
        </g>
      </g>
      <g id="Group_4" data-name="Group 4" transform="translate(26.432 0.05)">
        <g id="Group_3" data-name="Group 3">
          <path id="Path_3" data-name="Path 3" d="M189.2.05H173.348A2.643,2.643,0,0,0,170.7,2.682V71.4a2.647,2.647,0,0,0,2.648,2.648H189.2a2.647,2.647,0,0,0,2.648-2.648V2.7A2.647,2.647,0,0,0,189.2.05Z" transform="translate(-170.7 -0.05)" fill="#9f9f9f"/>
        </g>
      </g>
      <g id="Group_6" data-name="Group 6" transform="translate(52.864 21.186)">
        <g id="Group_5" data-name="Group 5">
          <path id="Path_4" data-name="Path 4" d="M359.9,136.55H344.048A2.637,2.637,0,0,0,341.4,139.2v47.568a2.647,2.647,0,0,0,2.648,2.648H359.9a2.647,2.647,0,0,0,2.648-2.648V139.2A2.647,2.647,0,0,0,359.9,136.55Z" transform="translate(-341.4 -136.55)" fill="#9f9f9f"/>
        </g>
      </g>
    </g>
    <rect id="Rectangle_2" data-name="Rectangle 2" width="80" height="80" transform="translate(-31 0.05)" fill="none" opacity="0.8"/>
  </g>
</svg>
