<svg id="no-stopping" xmlns="http://www.w3.org/2000/svg" width="80" height="80" viewBox="0 0 80 80">
  <g id="Group_11" data-name="Group 11">
    <g id="Group_10" data-name="Group 10">
      <path id="Path_7" data-name="Path 7" d="M40,0A40,40,0,1,0,80,40,40.046,40.046,0,0,0,40,0Zm0,70A30.035,30.035,0,0,1,10,40a29.615,29.615,0,0,1,5.553-17.375L57.375,64.447A29.615,29.615,0,0,1,40,70ZM64.447,57.375,22.625,15.553A29.615,29.615,0,0,1,40,10,30.035,30.035,0,0,1,70,40,29.615,29.615,0,0,1,64.447,57.375Z" fill="#9f9f9f"/>
    </g>
  </g>
</svg>
