<svg xmlns="http://www.w3.org/2000/svg" width="80" height="80" viewBox="0 0 80 80">
  <g id="Group_3" data-name="Group 3" transform="translate(-483 -427)">
    <rect id="Rectangle_1" data-name="Rectangle 1" width="80" height="80" transform="translate(483 427)" fill="none"/>
    <g id="surface1" transform="translate(491 426.999)">
      <path id="Path_8" data-name="Path 8" d="M58.18,33.49a4.956,4.956,0,0,0-1.241.661,60.607,60.607,0,0,0-5.619,5.386c.112-.106-2.634,2.551-5.151,5.005a1.12,1.12,0,0,1-1.9-.793v-31.8A4.519,4.519,0,0,0,38.7,7.323c-2.434.511-3.733,2.776-3.733,5.483l.021,24.005-3.71.009V4.334A4.074,4.074,0,0,0,26.01.164c-1.974.519-2.9,2.377-2.9,4.719V36.865l-3.7.008-.021-25.985c0-2.6-1.224-4.886-3.82-4.963-2.7-.08-4,2.183-4,4.862l-.038,26.129-3.616.007V19.8c0-2.7-1.255-4.736-3.967-4.736S0,17.1,0,19.8L0,57.817C1.356,77.364,12.407,80,23.958,80A23.84,23.84,0,0,0,45.423,67.665c.546-.88,2.02-3.2,3.769-5.947,2.487-3.907,4.744-7.4,6.328-9.879,2.088-3.266,4-5.817,6.364-8.889.658-.855,1.2-1.542,1.463-1.827a5.153,5.153,0,0,0,1.322-2.789v-.2C64.669,34.366,61.721,32.2,58.18,33.49Zm0,0" fill="#9f9f9f"/>
    </g>
  </g>
</svg>
