<?xml version="1.0" encoding="utf-8"?>
<!-- Generator: Adobe Illustrator 16.0.0, SVG Export Plug-In . SVG Version: 6.00 Build 0)  -->
<!DOCTYPE svg PUBLIC "-//W3C//DTD SVG 1.1//EN" "http://www.w3.org/Graphics/SVG/1.1/DTD/svg11.dtd">
<svg version="1.1" id="Layer_1" xmlns="http://www.w3.org/2000/svg" xmlns:xlink="http://www.w3.org/1999/xlink" x="0px" y="0px"
	 width="22px" height="22px" viewBox="0 0 22 22" enable-background="new 0 0 22 22" xml:space="preserve">
<path fill="#6D6D6D" d="M12.833,4.583c0-1.013-0.821-1.833-1.833-1.833S9.167,3.57,9.167,4.583S9.988,6.416,11,6.416
	C12.011,6.412,12.83,5.594,12.833,4.583z M12.833,17.416c-0.001-1.012-0.821-1.832-1.834-1.832s-1.833,0.822-1.832,1.834
	S9.988,19.25,11,19.25C12.011,19.246,12.83,18.428,12.833,17.416L12.833,17.416z M12.833,11c0-1.012-0.821-1.833-1.833-1.833
	S9.167,9.988,9.167,11S9.988,12.833,11,12.833C12.011,12.83,12.83,12.011,12.833,11z"/>
</svg>
