<svg id="user-settings-line" xmlns="http://www.w3.org/2000/svg" width="20" height="20" viewBox="0 0 20 20">
  <path id="Path_5" data-name="Path 5" d="M0,0H20V20H0Z" fill="none"/>
  <path id="Path_6" data-name="Path 6" d="M10.667,11.833V13.5a5,5,0,0,0-5,5H4a6.667,6.667,0,0,1,6.667-6.667Zm0-.833a5,5,0,1,1,5-5A5,5,0,0,1,10.667,11Zm0-1.667a3.332,3.332,0,1,0-2.358-.976,3.333,3.333,0,0,0,2.358.976Zm2.163,6.51a2.925,2.925,0,0,1,0-1.353L12,14.013l.833-1.443.827.477a2.913,2.913,0,0,1,1.171-.677v-.954H16.5v.954a2.91,2.91,0,0,1,1.171.677l.827-.477.833,1.443-.827.477a2.925,2.925,0,0,1,0,1.352l.827.478L18.5,17.763l-.827-.477a2.913,2.913,0,0,1-1.171.677v.954H14.833v-.954a2.913,2.913,0,0,1-1.171-.677l-.827.478L12,16.32l.827-.477Zm2.837.573a1.25,1.25,0,1,0-1.25-1.25,1.25,1.25,0,0,0,1.25,1.25Z" transform="translate(-0.667 -0.167)" fill="#f04b23"/>
</svg>
