<svg id="shield-user-line" xmlns="http://www.w3.org/2000/svg" width="20" height="20" viewBox="0 0 20 20">
  <path id="Path_9" data-name="Path 9" d="M0,0H20V20H0Z" fill="none"/>
  <path id="Path_10" data-name="Path 10" d="M3.631,2.471,10.25,1l6.619,1.471a.806.806,0,0,1,.631.786V11.3a4.833,4.833,0,0,1-2.152,4.021l-5.1,3.4-5.1-3.4A4.833,4.833,0,0,1,3,11.3V3.257a.806.806,0,0,1,.631-.786ZM4.611,3.9v7.4a3.222,3.222,0,0,0,1.435,2.681l4.2,2.8,4.2-2.8a3.222,3.222,0,0,0,1.435-2.68V3.9L10.25,2.651ZM10.25,9.056a2.014,2.014,0,1,1,2.014-2.014A2.014,2.014,0,0,1,10.25,9.056Zm-3.6,4.028a3.625,3.625,0,0,1,7.207,0Z" transform="translate(0 0)" fill="#f04b23"/>
</svg>
