<svg id="calculator-line" xmlns="http://www.w3.org/2000/svg" width="20" height="20" viewBox="0 0 20 20">
  <path id="Path_7" data-name="Path 7" d="M0,0H20V20H0Z" fill="none"/>
  <path id="Path_8" data-name="Path 8" d="M3.833,2H17.167A.833.833,0,0,1,18,2.833v15a.833.833,0,0,1-.833.833H3.833A.833.833,0,0,1,3,17.833v-15A.833.833,0,0,1,3.833,2Zm.833,1.667V17H16.333V3.667ZM6.333,5.333h8.333V8.667H6.333Zm0,5H8V12H6.333Zm0,3.333H8v1.667H6.333Zm3.333-3.333h1.667V12H9.667Zm0,3.333h1.667v1.667H9.667ZM13,10.333h1.667v5H13Z" transform="translate(-0.5 -0.333)" fill="#f04b23"/>
</svg>
