<svg xmlns="http://www.w3.org/2000/svg" id="prefix__phone-fill" width="24" height="24" viewBox="0 0 24 24">
    <path id="prefix__Path_1846" d="M0 0h24v24H0z" data-name="Path 1846" style="fill:none"/>
    <path id="prefix__Path_1847" d="M21 16.42v3.536a1 1 0 0 1-.93 1c-.437.03-.794.046-1.07.046A16 16 0 0 1 3 5q0-.414.046-1.07a1 1 0 0 1 1-.93H7.58a.5.5 0 0 1 .5.45c.023.23.044.413.064.552A13.9 13.9 0 0 0 9.35 8a.456.456 0 0 1-.15.57l-2.155 1.542a13.047 13.047 0 0 0 6.844 6.844l1.54-2.154a.462.462 0 0 1 .571-.149 13.9 13.9 0 0 0 4 1.2c.139.02.322.042.55.064a.5.5 0 0 1 .449.5z" data-name="Path 1847" style="fill:#c1c1c1"/>
</svg>
