<svg xmlns="http://www.w3.org/2000/svg" xmlns:xlink="http://www.w3.org/1999/xlink" width="132" height="199" viewBox="0 0 132 199">
  <defs>
    <style>
      .cls-1, .cls-18 {
        fill: none;
      }

      .cls-2 {
        fill: url(#radial-gradient);
      }

      .cls-3 {
        mix-blend-mode: multiply;
        isolation: isolate;
        fill: url(#radial-gradient-2);
      }

      .cls-4 {
        fill: #1a1818;
      }

      .cls-5 {
        fill: url(#linear-gradient);
      }

      .cls-6 {
        fill: url(#radial-gradient-3);
      }

      .cls-7 {
        fill: url(#radial-gradient-4);
      }

      .cls-8 {
        fill: url(#radial-gradient-5);
      }

      .cls-16, .cls-17, .cls-9 {
        fill: #fff;
      }

      .cls-10 {
        fill: #2d1a10;
      }

      .cls-11 {
        fill: #623a1d;
      }

      .cls-12 {
        clip-path: url(#clip-path);
      }

      .cls-13 {
        fill: url(#linear-gradient-2);
      }

      .cls-14 {
        fill: url(#linear-gradient-3);
      }

      .cls-15 {
        fill: url(#linear-gradient-4);
      }

      .cls-16 {
        opacity: 0.3;
      }

      .cls-17 {
        opacity: 0.4;
      }

      .cls-18 {
        stroke: #2d1a10;
        stroke-linecap: round;
        stroke-linejoin: round;
        stroke-width: 6.374px;
      }

      .cls-19 {
        fill: url(#radial-gradient-6);
      }
    </style>
    <radialGradient id="radial-gradient" cx="0.681" cy="0.069" r="1.177" gradientTransform="matrix(1.056, -0.173, 0.186, 0.985, 0.031, 0.208)" gradientUnits="objectBoundingBox">
      <stop offset="0" stop-color="#ace1fa"/>
      <stop offset="0" stop-color="#a5def9"/>
      <stop offset="0" stop-color="#92d9f9"/>
    </radialGradient>
    <radialGradient id="radial-gradient-2" cx="0.944" cy="0.672" r="1.379" gradientTransform="matrix(0.795, 0.093, -0.074, 0.996, 0.238, -0.063)" xlink:href="#radial-gradient"/>
    <linearGradient id="linear-gradient" x1="0.833" y1="0.868" x2="1.214" y2="1.057" gradientUnits="objectBoundingBox">
      <stop offset="0"/>
      <stop offset="0.209" stop-color="#130b06"/>
      <stop offset="0.48" stop-color="#26160d"/>
      <stop offset="0.669" stop-color="#2d1a10"/>
      <stop offset="0.767" stop-color="#28170e"/>
      <stop offset="0.867" stop-color="#1c100a"/>
      <stop offset="0.967" stop-color="#080402"/>
      <stop offset="1"/>
    </linearGradient>
    <radialGradient id="radial-gradient-3" cx="0.76" cy="0.625" r="0.662" gradientTransform="translate(-0.006) scale(1.011 1)" gradientUnits="objectBoundingBox">
      <stop offset="0.288" stop-color="#ffbe00"/>
      <stop offset="0.421" stop-color="#feb701"/>
      <stop offset="0.611" stop-color="#fba404"/>
      <stop offset="0.835" stop-color="#f6850a"/>
      <stop offset="1" stop-color="#f36a10"/>
    </radialGradient>
    <radialGradient id="radial-gradient-4" cx="0.726" cy="0.453" r="1.006" gradientTransform="translate(0.155) scale(0.69 1)" gradientUnits="objectBoundingBox">
      <stop offset="0" stop-color="#794a2c"/>
      <stop offset="0.178" stop-color="#653d24"/>
      <stop offset="0.515" stop-color="#462a19"/>
      <stop offset="0.801" stop-color="#331e12"/>
      <stop offset="1" stop-color="#2d1a10"/>
    </radialGradient>
    <radialGradient id="radial-gradient-5" cx="0.694" cy="0.328" r="0.795" gradientTransform="translate(0.038) scale(0.925 1)" gradientUnits="objectBoundingBox">
      <stop offset="0.288" stop-color="#ffbe00"/>
      <stop offset="0.404" stop-color="#fdb701"/>
      <stop offset="0.57" stop-color="#faa404"/>
      <stop offset="0.767" stop-color="#f6850a"/>
      <stop offset="0.985" stop-color="#ef5a12"/>
      <stop offset="1" stop-color="#ef5713"/>
    </radialGradient>
    <clipPath id="clip-path">
      <path id="Path_1769" data-name="Path 1769" class="cls-1" d="M488.363,183.249s-.524,4.714-11.518,11.521-20.824,27.309-3.142,41.365c20.422,16.231,74.353-11,38.223-56.027Z" transform="translate(-464.002 -180.108)"/>
    </clipPath>
    <linearGradient id="linear-gradient-2" x1="0.128" y1="0.202" x2="0.864" y2="0.672" xlink:href="#linear-gradient"/>
    <linearGradient id="linear-gradient-3" x1="0.168" y1="0.228" x2="0.904" y2="0.697" xlink:href="#linear-gradient"/>
    <linearGradient id="linear-gradient-4" x1="0.175" y1="0.235" x2="0.907" y2="0.696" xlink:href="#linear-gradient"/>
    <radialGradient id="radial-gradient-6" cx="0.702" cy="0.119" r="1.056" gradientTransform="translate(0.067) scale(0.866 1)" xlink:href="#radial-gradient-5"/>
  </defs>
  <g id="Group_1654" data-name="Group 1654" transform="translate(-419.64 -32.019)">
    <rect id="Rectangle_1425" data-name="Rectangle 1425" class="cls-1" width="132" height="199" transform="translate(419.64 32.019)"/>
    <g id="Group_1653" data-name="Group 1653" transform="translate(421.236 32.591)">
      <path id="Path_1750" data-name="Path 1750" class="cls-2" d="M560.1,164.081c-10.968,9.872-28.668,14.879-36.446,8.405s-6.055-24.792,1.671-37.367c9.495-15.457,27.378-21.006,38.515-11.73S573.588,151.942,560.1,164.081Z" transform="translate(-445.768 -54.286)"/>
      <path id="Path_1751" data-name="Path 1751" class="cls-3" d="M536.439,206.353c-9.24-6.54-15.975-18.938-12.444-25.85s17.526-8.718,28.237-5.061c13.17,4.493,20.919,15.651,15.862,25.548S547.8,214.39,536.439,206.353Z" transform="translate(-446.879 -68.006)"/>
      <path id="Path_1752" data-name="Path 1752" class="cls-4" d="M487.346,190.306c-.127.034-.2.047-.273.064l-.225.046-.422.077q-.414.072-.812.13c-.535.079-1.06.144-1.583.2-1.046.109-2.082.194-3.114.238a56.742,56.742,0,0,1-18.055-2.092,51.064,51.064,0,0,1-10.947-4.564,51.279,51.279,0,0,1-9.364-6.837,47.55,47.55,0,0,0,15.7,6.086,48.974,48.974,0,0,0,5.459.735,49.853,49.853,0,0,0,10.834-.363,48.336,48.336,0,0,0,5.235-1.035c.856-.214,1.7-.463,2.518-.725.41-.133.815-.271,1.206-.415.2-.072.388-.145.572-.22l.267-.11c.046-.019.085-.036.119-.052s.081-.037.068-.039Z" transform="translate(-426.697 -69.003)"/>
      <path id="Path_1753" data-name="Path 1753" class="cls-5" d="M491.747,254.661l-12.4,31.5,25.235-31.16Z" transform="translate(-435.923 -88.333)"/>
      <path id="Path_1754" data-name="Path 1754" class="cls-6" d="M488.363,183.249s-.524,4.714-11.518,11.521-20.824,27.309-3.142,41.365c20.422,16.231,74.353-11,38.223-56.027Z" transform="translate(-432.076 -69.64)"/>
      <path id="Path_1755" data-name="Path 1755" class="cls-7" d="M519.14,172.266c.8,6.713-5.781,10.653-14.689,11.711s-16.777-1.17-17.572-7.883,5.779-13.012,14.686-14.07S518.342,165.55,519.14,172.266Z" transform="translate(-437.796 -65.068)"/>
      <path id="Path_1756" data-name="Path 1756" class="cls-8" d="M509,113.473c0,23.95-19.416,33.93-43.365,33.93s-40.22-9.979-40.22-33.93,16.271-43.364,40.22-43.364C495.444,70.109,509,89.526,509,113.473Z" transform="translate(-422.4 -42.059)"/>
      <path id="Path_1757" data-name="Path 1757" class="cls-9" d="M456.759,114.7c-.441,9.367-5.628,16.453-11.614,16.453s-11.175-7.087-11.616-16.453c-.476-10.136,4.708-18.988,11.616-18.988S457.236,104.56,456.759,114.7Z" transform="translate(-424.428 -48.478)"/>
      <g id="Group_1647" data-name="Group 1647" transform="translate(16.647 53.902)">
        <path id="Path_1758" data-name="Path 1758" class="cls-10" d="M457.8,115.661c0,6.1-3.177,11.049-7.094,11.049s-7.094-4.946-7.094-11.049,3.177-11.049,7.094-11.049S457.8,109.559,457.8,115.661Z" transform="translate(-443.61 -104.612)"/>
        <path id="Path_1759" data-name="Path 1759" class="cls-11" d="M451.223,120.43l-5.343,3.754s1.372,7.581,8.161,4.91l-.291-7.8Z" transform="translate(-444.179 -108.578)"/>
        <path id="Path_1760" data-name="Path 1760" class="cls-4" d="M456.813,117.385c0,3.258-1.7,5.9-3.788,5.9s-3.788-2.643-3.788-5.9,1.7-5.9,3.788-5.9S456.813,114.126,456.813,117.385Z" transform="translate(-445.021 -106.336)"/>
        <path id="Path_1761" data-name="Path 1761" class="cls-9" d="M457.158,111.646a2.878,2.878,0,1,1-2.879-2.878A2.878,2.878,0,0,1,457.158,111.646Z" transform="translate(-445.564 -105.654)"/>
        <path id="Path_1762" data-name="Path 1762" class="cls-9" d="M459.3,117.225a1.231,1.231,0,1,0-1.23,1.232A1.231,1.231,0,0,0,459.3,117.225Z" transform="translate(-446.926 -107.466)"/>
      </g>
      <path id="Path_1763" data-name="Path 1763" class="cls-4" d="M458.133,146.921a41.355,41.355,0,0,0,26.184-1s-1.481,15.4-11.724,15.974S458.133,146.921,458.133,146.921Z" transform="translate(-430.604 -61.068)"/>
      <path id="Path_1764" data-name="Path 1764" class="cls-4" d="M477.76,66.8a38.122,38.122,0,0,0,.464-9.7,30.844,30.844,0,0,0-.721-4.614,23.3,23.3,0,0,0-1.394-4.269,15.91,15.91,0,0,0-2.338-3.641c-.474-.532-.875-1.092-1.316-1.63-.4-.566-.84-1.1-1.22-1.707-.205-.291-.424-.575-.629-.876l-.306-.457-.335-.441c-.223-.3-.441-.607-.654-.931-.238-.3-.471-.609-.7-.931-.445-.671-.972-1.28-1.452-2a26.155,26.155,0,0,1-1.52-2.261l.312-.633a11.28,11.28,0,0,1,1.439-.019,10.085,10.085,0,0,1,1.412.137,14.429,14.429,0,0,1,2.711.723c.438.167.877.34,1.307.536q.629.319,1.245.678c.207.118.41.241.614.365l.58.417c.383.285.768.572,1.136.88a13.416,13.416,0,0,1,3.41,4.627,33.507,33.507,0,0,1,1.684,5.446,26.854,26.854,0,0,1,.262,10.778,31.448,31.448,0,0,1-3.33,9.781Z" transform="translate(-432.486 -32.673)"/>
      <path id="Path_1765" data-name="Path 1765" class="cls-4" d="M449,70.07a38.115,38.115,0,0,0-4.57-8.562,30.841,30.841,0,0,0-2.984-3.592,23.335,23.335,0,0,0-3.384-2.951,15.934,15.934,0,0,0-3.872-1.927c-.679-.213-1.311-.489-1.965-.723-.633-.282-1.287-.517-1.923-.841-.325-.144-.658-.276-.988-.429l-.5-.235-.514-.207q-.515-.212-1.038-.465c-.357-.133-.716-.282-1.081-.44-.725-.347-1.49-.6-2.273-.975a26.1,26.1,0,0,1-2.464-1.162l-.057-.7a11.428,11.428,0,0,1,1.227-.754A10.077,10.077,0,0,1,423.9,45.5a14.382,14.382,0,0,1,2.7-.769c.461-.081.928-.157,1.4-.21q.7-.049,1.416-.056c.237-.005.475,0,.713,0l.712.06c.475.049.952.1,1.427.174a13.4,13.4,0,0,1,5.3,2.224,33.547,33.547,0,0,1,4.236,3.812,26.847,26.847,0,0,1,5.748,9.119,31.442,31.442,0,0,1,2.152,10.1Z" transform="translate(-421.392 -35.628)"/>
      <g id="Group_1650" data-name="Group 1650" transform="translate(31.926 110.468)">
        <g id="Group_1649" data-name="Group 1649" class="cls-12">
          <g id="Group_1648" data-name="Group 1648" transform="translate(-10.73 4.648)">
            <path id="Path_1766" data-name="Path 1766" class="cls-13" d="M500.662,208.186A51.9,51.9,0,0,1,483,205.166a47.624,47.624,0,0,1-19.832-13.242l6.949-5.613c.911,1.11,22.751,26.928,63.935,2.544l4.552,7.687C523.787,205.316,511.02,208.186,500.662,208.186Z" transform="translate(-453.062 -186.312)"/>
            <path id="Path_1767" data-name="Path 1767" class="cls-14" d="M492.329,230.635a51.894,51.894,0,0,1-17.668-3.023,47.628,47.628,0,0,1-19.831-13.24l6.949-5.613c.91,1.11,22.753,26.929,63.937,2.544l4.55,7.687C515.452,227.764,502.688,230.635,492.329,230.635Z" transform="translate(-450.972 -191.941)"/>
            <path id="Path_1768" data-name="Path 1768" class="cls-15" d="M487.374,254.588a52.074,52.074,0,0,1-17.751-3.037,47.9,47.9,0,0,1-19.942-13.316l7.346-5.906-3.672,2.953,3.659-2.969c.9,1.105,22.629,26.758,63.622,2.488l4.8,8.11C510.577,251.708,497.77,254.588,487.374,254.588Z" transform="translate(-449.681 -197.846)"/>
          </g>
        </g>
      </g>
      <path id="Path_1770" data-name="Path 1770" class="cls-4" d="M450.048,179.681a3.768,3.768,0,1,1-3.749-4.151A3.967,3.967,0,0,1,450.048,179.681Z" transform="translate(-426.697 -68.492)"/>
      <path id="Path_1771" data-name="Path 1771" class="cls-4" d="M441.643,169.7a2.506,2.506,0,0,1,1.277.269,3.178,3.178,0,0,1,.936.714,2.189,2.189,0,0,1,.52,1.009c.037.19.073.379.1.567s.051.376.082.559a7.569,7.569,0,0,1,.052,2.181,8.742,8.742,0,0,1-.191,1.045c-.085.34-.21.671-.323.993l-.244-.027c-.076-.335-.128-.661-.2-.979-.093-.317-.144-.629-.264-.928l-.145-.445-.181-.427a3.452,3.452,0,0,0-.179-.416c-.067-.135-.121-.273-.2-.4s-.154-.255-.241-.375l-.285-.342a2.022,2.022,0,0,1-.4-.735,6.077,6.077,0,0,1-.191-.907,8.127,8.127,0,0,1-.076-1.167Z" transform="translate(-426.431 -67.028)"/>
      <path id="Path_1772" data-name="Path 1772" class="cls-4" d="M435.411,175.474a2.518,2.518,0,0,1,1.089-.717,3.181,3.181,0,0,1,1.166-.163,2.194,2.194,0,0,1,1.083.342c.161.107.321.214.474.327s.3.229.455.335a7.561,7.561,0,0,1,1.586,1.5,8.926,8.926,0,0,1,.608.871c.181.3.328.622.478.928l-.192.155c-.291-.183-.56-.375-.838-.545s-.548-.34-.844-.465l-.418-.211-.43-.172a3.563,3.563,0,0,0-.422-.166c-.143-.046-.279-.106-.423-.141s-.289-.07-.436-.092l-.443-.039a1.992,1.992,0,0,1-.806-.232,5.951,5.951,0,0,1-.779-.5,8.12,8.12,0,0,1-.883-.767Z" transform="translate(-424.907 -68.257)"/>
      <path id="Path_1773" data-name="Path 1773" class="cls-16" d="M523.048,189.281a17.849,17.849,0,0,1,2.208,2.909,26.793,26.793,0,0,1,1.733,3.232,30.705,30.705,0,0,1,2.223,7.06c.1.614.227,1.229.294,1.851.041.311.068.623.1.934s.065.624.077.938c.025.627.091,1.257.075,1.887s-.01,1.263-.039,1.894a31.126,31.126,0,0,1-1.313,7.486l-.279.912c-.093.3-.217.6-.324.9-.236.59-.443,1.192-.706,1.769l-.823,1.714c-.13.288-.294.56-.446.836s-.312.55-.473.821l-.48.814c-.17.265-.351.523-.525.784-.351.521-.71,1.037-1.081,1.54a33.831,33.831,0,0,1-2.432,2.837c-.425.45-.864.888-1.3,1.321-.462.41-.919.822-1.391,1.216a33.242,33.242,0,0,1-2.919,2.219c-1,.689-2.074,1.28-3.122,1.872a36.129,36.129,0,0,1-3.319,1.48c.712-1,1.466-1.917,2.2-2.83.35-.478.712-.935,1.066-1.4s.734-.89,1.056-1.373l1.016-1.382c.163-.234.351-.445.506-.683l.475-.7c.312-.471.639-.924.96-1.379.3-.474.582-.953.887-1.413l.449-.695c.148-.232.272-.48.408-.717l.828-1.414c.255-.483.488-.973.749-1.447.126-.239.257-.475.378-.716l.331-.737a40.981,40.981,0,0,0,2.3-5.969,44.845,44.845,0,0,0,1.914-12.716,58.437,58.437,0,0,0-.283-6.7C523.816,193.955,523.488,191.664,523.048,189.281Z" transform="translate(-443.304 -71.94)"/>
      <path id="Path_1774" data-name="Path 1774" class="cls-17" d="M494.045,76.131a22.056,22.056,0,0,1,4.053.805,33.7,33.7,0,0,1,3.913,1.389,36.139,36.139,0,0,1,7.278,4.179,34.5,34.5,0,0,1,3.261,2.753c.517.494,1.023,1,1.511,1.532.468.546.967,1.068,1.407,1.642a32.19,32.19,0,0,1,4.5,7.451c.267.68.539,1.358.786,2.046.212.7.456,1.389.637,2.1.16.711.359,1.415.482,2.131l.19,1.074c.067.358.125.718.157,1.061.077.7.166,1.389.216,2.088.028.349.064.7.083,1.047l.04,1.051c.034.7.032,1.4.033,2.1s-.049,1.4-.081,2.1a35.944,35.944,0,0,1-1.48,8.262,25.232,25.232,0,0,1-3.635,7.448,61.583,61.583,0,0,0,.175-15.612q-.444-3.791-1.23-7.512c-.13-.626-.281-1.191-.416-1.788s-.337-1.162-.5-1.743-.389-1.141-.577-1.713c-.21-.564-.442-1.12-.661-1.68A41.479,41.479,0,0,0,506.034,86.2a63.686,63.686,0,0,0-5.613-5.246C498.413,79.282,496.3,77.686,494.045,76.131Z" transform="translate(-439.609 -43.569)"/>
      <path id="Path_1775" data-name="Path 1775" class="cls-16" d="M522.166,177.689a7.022,7.022,0,0,1-1.706,3.667,10.755,10.755,0,0,1-3.2,2.551l-.932.425a8.466,8.466,0,0,1-.962.339,10.653,10.653,0,0,1-1.977.429,6.423,6.423,0,0,1-1,.075c-.336.007-.67.005-1,0a10.865,10.865,0,0,1-1.986-.346,16.467,16.467,0,0,1,1.8-.8c.291-.13.581-.255.869-.37s.577-.216.854-.351.558-.244.838-.353.544-.253.816-.373c.551-.226,1.065-.515,1.6-.764a31.484,31.484,0,0,0,3.03-1.814A28.291,28.291,0,0,0,522.166,177.689Z" transform="translate(-443.458 -69.033)"/>
      <path id="Path_1776" data-name="Path 1776" class="cls-4" d="M520.236,166.81a3.838,3.838,0,0,0,2.908,2.873,3.984,3.984,0,0,0,2.633-.361,56.474,56.474,0,0,0,19.678-16.341,53.117,53.117,0,0,0,3.239-4.941,51.269,51.269,0,0,0,4.548-10.666,47.528,47.528,0,0,1-10.374,13.26,51.593,51.593,0,0,1-20.11,10.743,3.833,3.833,0,0,0-2.724,4.567Z" transform="translate(-446.1 -58.925)"/>
      <g id="Group_1652" data-name="Group 1652" transform="translate(42.231 56.728)">
        <g id="Group_1651" data-name="Group 1651">
          <path id="Path_1777" data-name="Path 1777" class="cls-4" d="M505.3,114.184a22.448,22.448,0,0,0-6.589-3.3,18.056,18.056,0,0,0-3.533-.722l-.892-.07c-.3-.028-.594,0-.89-.007a13.8,13.8,0,0,0-1.769.1,7.752,7.752,0,0,0-.876.133c-.291.054-.583.1-.871.158l-.855.229c-.142.039-.285.073-.426.115l-.417.146a16.8,16.8,0,0,0-3.205,1.46,18.193,18.193,0,0,0-2.864,2.061c-.445.387-.865.8-1.274,1.221-.2.216-.4.429-.584.652s-.377.461-.514.648l-1.546-1.463c.152-.112.264-.181.39-.264s.245-.15.368-.223c.244-.146.493-.273.742-.395s.5-.244.755-.348.5-.229.766-.312a14.615,14.615,0,0,1,1.567-.5c.265-.068.528-.142.794-.205l.8-.148a20.346,20.346,0,0,1,6.458-.04l1.576.307a5.976,5.976,0,0,1,.773.2l.765.23a22.637,22.637,0,0,1,2.966,1.12,14.23,14.23,0,0,1,1.41.705c.464.244.923.5,1.379.75.882.564,1.74,1.16,2.587,1.754-.961-.409-1.9-.846-2.835-1.261-.485-.173-.969-.348-1.446-.53a13.614,13.614,0,0,0-1.446-.5,28.45,28.45,0,0,0-2.944-.743l-.74-.147a5.17,5.17,0,0,0-.742-.118l-1.49-.166a21.06,21.06,0,0,0-5.888.39l-.716.158c-.235.065-.467.142-.7.211-.471.128-.92.312-1.374.482-.231.077-.442.193-.664.288a7.075,7.075,0,0,0-.646.316c-.212.11-.423.222-.618.347-.1.06-.205.118-.294.181s-.2.129-.252.17l-.02.016a1.075,1.075,0,0,1-1.526-1.478c.227-.32.42-.566.641-.827s.438-.5.661-.749a19.142,19.142,0,0,1,1.433-1.368,18.21,18.21,0,0,1,3.242-2.262,17.29,17.29,0,0,1,3.653-1.523l.474-.144c.16-.04.323-.07.484-.106l.969-.2c.325-.051.653-.085.98-.127a7.828,7.828,0,0,1,.983-.085,15.209,15.209,0,0,1,1.974.016c.327.031.656.034.98.089l.969.156a17.316,17.316,0,0,1,3.708,1.152A18.4,18.4,0,0,1,505.3,114.184Z" transform="translate(-477.756 -108.384)"/>
        </g>
      </g>
    </g>
    <line id="Line_1" data-name="Line 1" class="cls-18" y2="51.403" transform="translate(523.665 75.834)"/>
    <path id="Path_1778" data-name="Path 1778" class="cls-4" d="M557.31,141.119a3.768,3.768,0,1,0,2.393-5.055A3.966,3.966,0,0,0,557.31,141.119Z" transform="translate(-34.187 -25.969)"/>
    <path id="Path_1779" data-name="Path 1779" class="cls-19" d="M562.471,39.546H536.028l-13.221,22.9,13.221,22.9h26.443l13.221-22.9Z" transform="translate(-25.584 -1.805)"/>
    <path id="Path_1780" data-name="Path 1780" class="cls-17" d="M576.436,62.138l-11.719-20.3H541.282L538.5,46.652S548.826,61.229,576.436,62.138Z" transform="translate(-29.52 -2.381)"/>
  </g>
</svg>
