<?xml version="1.0" encoding="utf-8"?>
<!-- Generator: Adobe Illustrator 16.0.0, SVG Export Plug-In . SVG Version: 6.00 Build 0)  -->
<!DOCTYPE svg PUBLIC "-//W3C//DTD SVG 1.1//EN" "http://www.w3.org/Graphics/SVG/1.1/DTD/svg11.dtd">
<svg version="1.1" id="prefix__eye-line" xmlns="http://www.w3.org/2000/svg" xmlns:xlink="http://www.w3.org/1999/xlink" x="0px"
	 y="0px" width="24px" height="48px" viewBox="0 0 24 48" enable-background="new 0 0 24 48" xml:space="preserve">
<path id="prefix__Path_1844" fill="none" d="M0,0h24v24H0V0z"/>
<path id="prefix__Path_1845" fill="#A1A1A1" d="M12,2.993c5.305-0.001,9.854,3.784,10.818,9c-1.097,5.974-6.83,9.929-12.806,8.832
	c-4.491-0.825-8.007-4.34-8.831-8.832C2.146,6.776,6.695,2.992,12,2.993z M12,18.992c4.201,0.001,7.844-2.904,8.777-7
	c-1.1-4.848-5.921-7.886-10.769-6.786c-3.38,0.767-6.019,3.406-6.785,6.786C4.158,16.087,7.8,18.991,12,18.992z M12,16.492
	c-2.485,0-4.5-2.015-4.5-4.5c0-2.485,2.015-4.5,4.5-4.5s4.5,2.015,4.5,4.5C16.5,14.478,14.485,16.492,12,16.492L12,16.492z
	 M12,14.492c1.381,0,2.5-1.119,2.5-2.5c0-1.381-1.119-2.5-2.5-2.5s-2.5,1.119-2.5,2.5C9.5,13.373,10.619,14.492,12,14.492z"/>
<path id="prefix__Path_1845_1_" fill="#F04B23" d="M12,26.993c5.305-0.001,9.854,3.783,10.818,8.999
	c-1.097,5.975-6.83,9.93-12.806,8.832c-4.491-0.825-8.007-4.34-8.831-8.832C2.146,30.776,6.695,26.992,12,26.993z M12,42.992
	c4.201,0.001,7.844-2.904,8.777-7c-1.1-4.848-5.921-7.885-10.769-6.785c-3.38,0.767-6.019,3.406-6.785,6.785
	C4.158,40.087,7.8,42.991,12,42.992z M12,40.492c-2.485,0-4.5-2.015-4.5-4.5c0-2.484,2.015-4.5,4.5-4.5s4.5,2.016,4.5,4.5
	C16.5,38.478,14.485,40.492,12,40.492L12,40.492z M12,38.492c1.381,0,2.5-1.119,2.5-2.5s-1.119-2.5-2.5-2.5s-2.5,1.119-2.5,2.5
	S10.619,38.492,12,38.492z"/>
</svg>
